<svg version="1.1" id="Layer_1" xmlns="http://www.w3.org/2000/svg" xmlns:xlink="http://www.w3.org/1999/xlink" x="0px" y="0px"
	 width="100%" viewBox="0 0 1822 1980" enable-background="new 0 0 1822 1980" xml:space="preserve">
<path fill="none" opacity="1.000000" stroke="#000000" stroke-linecap="round" stroke-linejoin="round" stroke-width="15.300000"
	d="
M428.000000,1404.000000 
	C435.047943,1415.707886 434.738495,1429.259155 436.766022,1442.037109 
	C443.760986,1486.120728 453.333527,1529.368774 469.872589,1571.050537 
	C498.345306,1642.808228 538.944092,1707.396362 586.213562,1767.833008 
	C620.341003,1811.466675 659.798950,1850.110352 702.814636,1885.227051 
	C721.809387,1900.733765 739.913147,1917.395142 761.099365,1929.830688 
	C779.172363,1940.438965 798.922302,1946.591064 819.977417,1949.183594 
	C847.580933,1952.582397 875.326660,1953.112671 902.986511,1955.180298 
	C927.660400,1957.024658 952.234619,1959.891357 976.984619,1961.274658 
	C1005.808289,1962.885620 1032.678711,1957.835693 1059.095093,1946.216064 
	C1099.454712,1928.463379 1134.039429,1902.235840 1167.922974,1874.904541 
	C1196.258667,1852.048340 1222.288208,1826.640015 1245.939697,1798.948486 
	C1276.540161,1763.121338 1306.064209,1726.426392 1331.959229,1686.973267 
	C1335.491821,1681.590820 1337.276733,1675.580078 1336.000000,1669.000000 
"/>
<path fill="none" opacity="1.000000" stroke="#000000" stroke-linecap="round" stroke-linejoin="round" stroke-width="17.000000"
	d="
M1380.000000,423.000000 
	C1388.113159,420.043976 1395.357666,422.807068 1401.956665,427.067169 
	C1424.403442,441.558197 1446.596191,456.442291 1469.029419,470.954529 
	C1480.425293,478.326599 1491.862671,485.595245 1505.990479,487.089691 
	C1520.394897,488.613403 1530.041992,477.169250 1530.995239,465.999603 
	C1534.656372,423.100494 1519.907471,385.873322 1493.810669,353.150940 
	C1461.798950,313.011780 1417.486816,292.466705 1368.966553,280.131470 
	C1342.099243,273.301056 1314.863281,268.336212 1287.009521,266.824890 
	C1266.627563,265.719025 1246.171265,264.002319 1226.041016,260.746246 
	C1200.889771,256.678009 1178.397705,245.860489 1158.986328,229.015778 
	C1138.217163,210.992844 1118.397095,191.742447 1094.967896,177.051300 
	C1058.290405,154.052933 1018.590393,143.470016 974.986328,146.822220 
	C930.839478,150.216171 891.555481,166.001175 854.953003,189.928131 
	C849.697144,193.363876 845.290527,197.584167 841.021057,202.020279 
	C827.999756,215.549728 834.435730,225.322922 846.961853,230.100082 
	C865.820801,237.292465 883.076416,246.811264 894.057617,264.965149 
	C905.279724,283.517334 911.641846,303.626129 913.939270,325.006531 
	C917.979919,362.610535 909.994690,397.916412 894.500061,432.225830 
	C891.315430,439.277527 888.464294,445.603699 883.076416,451.075256 
	C878.289673,455.936279 876.240112,463.346863 875.584961,469.067017 
	C873.942261,483.408234 864.669128,489.945831 853.952026,495.913818 
	C850.089539,498.064697 848.147949,500.600708 849.000000,505.000000 
"/>
<path fill="none" opacity="1.000000" stroke="#000000" stroke-linecap="round" stroke-linejoin="round" stroke-width="6.800000"
	d="
M1483.000000,693.000000 
	C1481.853638,688.573181 1480.330444,684.548218 1477.090332,680.919373 
	C1459.352051,661.052612 1452.624512,636.753174 1450.028809,610.997070 
	C1444.679077,557.915771 1434.759399,506.242065 1403.936401,461.043365 
	C1398.046997,452.407288 1389.524780,445.134247 1385.400879,435.822449 
	C1378.246826,419.668579 1364.377686,411.723663 1350.886353,403.179504 
	C1342.502930,397.870239 1332.758057,394.913574 1323.927368,390.134216 
	C1307.055542,381.002808 1292.714233,369.316193 1280.894653,354.081757 
	C1263.255005,331.345764 1244.192993,309.927124 1219.028198,294.952515 
	C1215.149780,292.644623 1211.170044,290.709106 1207.061035,288.863983 
	C1202.959961,287.022400 1198.385742,284.548401 1195.236938,288.204071 
	C1191.894897,292.083893 1194.142456,296.906097 1196.966553,301.022919 
	C1206.532104,314.966583 1220.075928,324.721497 1233.072510,334.907410 
	C1260.821289,356.654938 1287.704102,379.144501 1305.983276,410.009888 
	C1321.714355,436.572205 1331.621826,464.922058 1334.173340,495.985748 
	C1336.617554,525.742798 1333.582153,554.994324 1327.844238,583.969177 
	C1319.902710,624.071899 1329.275146,659.680725 1351.778687,693.148804 
	C1362.402100,708.948120 1370.333740,726.530762 1380.073975,742.956177 
	C1396.980957,771.467285 1417.322021,797.674438 1436.010742,824.992615 
	C1455.405518,853.342957 1465.515137,884.631775 1464.903931,918.998291 
	C1464.346680,950.322693 1470.545654,980.981506 1473.143921,1011.987915 
	C1473.402832,1015.078003 1475.666748,1018.000000 1477.000000,1021.000000 
"/>
<path fill="none" opacity="1.000000" stroke="#000000" stroke-linecap="round" stroke-linejoin="round" stroke-width="10.200000"
	d="
M1052.000000,984.000000 
	C1037.983643,984.695007 1034.033081,996.166931 1029.092651,1006.046326 
	C1017.242126,1029.744751 1015.850708,1055.587769 1018.396729,1080.960205 
	C1022.774780,1124.589478 1037.010254,1165.262085 1059.813599,1203.112305 
	C1081.292236,1238.763428 1112.011841,1258.323975 1152.957397,1264.292114 
	C1175.316528,1267.551147 1197.672485,1269.208130 1219.981079,1267.717163 
	C1256.295166,1265.290405 1292.138184,1259.445312 1323.952881,1239.923218 
	C1348.745361,1224.709839 1363.262695,1200.772217 1373.704590,1174.880859 
	C1388.886108,1137.238281 1398.466431,1098.079834 1398.172363,1056.998779 
	C1398.141357,1052.674561 1395.181030,1048.333374 1398.000000,1044.000000 
"/>
<path fill="none" opacity="1.000000" stroke="#000000" stroke-linecap="round" stroke-linejoin="round" stroke-width="10.200000"
	d="
M535.000000,939.000000 
	C534.529907,947.562744 526.532898,951.387268 522.510315,957.687317 
	C515.025024,969.410889 511.307892,982.026978 508.165802,995.040039 
	C507.176575,999.136841 507.450592,1003.797180 509.025543,1007.990417 
	C512.397888,1016.969116 516.888977,1018.546875 523.891418,1011.885864 
	C539.408508,997.125427 556.779236,985.225830 576.015259,976.031921 
	C616.717285,956.578369 658.165833,955.129456 699.968628,972.077454 
	C723.295288,981.534607 745.464661,993.282654 766.079712,1007.887451 
	C769.271545,1010.148682 773.587708,1011.369873 776.784729,1013.347961 
	C783.184875,1017.308167 788.650452,1015.744080 792.773254,1011.765076 
	C797.077209,1007.610962 799.244385,1001.821777 797.169250,994.948914 
	C795.218079,988.486267 792.382019,982.090759 792.948425,974.995911 
	C793.226685,971.509827 790.495728,970.023987 788.135864,967.852356 
	C779.467712,959.875671 771.127136,953.687988 758.079163,952.271057 
	C746.095093,950.969727 734.215454,945.661804 722.032166,942.860229 
	C703.179016,938.524963 684.218140,935.338013 665.031555,932.764832 
	C632.343689,928.380676 599.685059,930.842346 566.999878,930.962524 
	C556.409607,931.001465 546.487244,936.105896 536.908936,936.896484 
	C526.535278,937.752747 517.160400,939.739929 508.044006,943.603821 
	C467.910309,960.614075 442.852417,988.978882 437.784912,1033.975830 
	C431.493805,1089.837280 441.911957,1142.433105 467.275909,1191.858398 
	C485.361694,1227.100952 516.467041,1248.128784 554.079956,1257.685303 
	C608.640076,1271.547852 663.250183,1270.039185 717.003174,1252.009521 
	C745.814331,1242.345459 765.506775,1222.406860 781.151062,1197.093384 
	C795.242188,1174.292969 806.250671,1150.222656 810.653687,1123.942017 
	C814.226196,1102.618408 814.068665,1080.737305 805.825867,1060.069458 
	C803.198547,1053.481567 797.864136,1048.509521 792.178284,1043.785400 
	C785.560303,1038.286865 778.933960,1040.218018 772.000000,1041.000000 
"/>
<path fill="none" opacity="1.000000" stroke="#000000" stroke-linecap="round" stroke-linejoin="round" stroke-width="13.600000"
	d="
M1426.000000,1050.000000 
	C1436.718994,1059.606445 1438.884766,1073.062988 1441.952271,1086.011353 
	C1448.824097,1115.016479 1442.188232,1143.554199 1437.760498,1171.962646 
	C1433.788086,1197.449951 1428.184814,1222.726807 1418.991089,1246.996582 
	C1407.545654,1277.210693 1390.708252,1304.097778 1369.013916,1328.012695 
	C1347.296509,1351.953125 1322.578857,1372.897949 1300.902344,1396.911865 
	C1277.144531,1423.231567 1260.828491,1453.541382 1254.466675,1488.085938 
	C1250.253174,1510.965698 1251.184937,1534.512573 1253.596680,1558.041382 
	C1256.249512,1583.924316 1262.911377,1609.093994 1265.063965,1634.994629 
	C1267.317749,1662.111572 1266.894653,1688.907837 1257.998657,1714.999512 
	C1255.345459,1722.781006 1250.835205,1730.250366 1254.000000,1739.000000 
"/>
<path fill="none" opacity="1.000000" stroke="#000000" stroke-linecap="round" stroke-linejoin="round" stroke-width="10.200000"
	d="
M1507.000000,1315.000000 
	C1517.267334,1316.280151 1524.270142,1309.953491 1530.912109,1303.903564 
	C1547.565796,1288.734253 1557.853271,1269.054688 1566.853394,1248.934448 
	C1585.698120,1206.806152 1600.266357,1163.155396 1609.923584,1117.983643 
	C1614.845947,1094.958984 1618.189087,1071.647339 1616.857788,1048.008057 
	C1616.432617,1040.456909 1615.059692,1032.778076 1612.850464,1025.545654 
	C1608.083252,1009.939026 1594.055054,1003.919128 1577.030273,1015.046265 
	C1567.720459,1021.130920 1560.924316,1029.943604 1555.162109,1039.101929 
	C1541.091553,1061.464966 1523.560791,1081.930664 1516.025024,1108.007202 
	C1515.173462,1110.953735 1514.225708,1113.981323 1514.097290,1117.004150 
	C1513.871826,1122.312134 1512.385010,1128.905640 1518.142578,1131.706909 
	C1522.332031,1133.745239 1526.143799,1129.366943 1530.100586,1127.182251 
	C1551.305664,1115.473755 1560.279785,1123.400024 1563.741089,1144.043457 
	C1569.203125,1176.619141 1567.367065,1208.681885 1552.111572,1239.056030 
	C1545.811157,1251.600586 1535.851562,1260.804810 1525.863647,1269.849365 
	C1513.124756,1281.385010 1504.700562,1294.732910 1503.000000,1312.000000 
"/>
<path fill="none" opacity="1.000000" stroke="#000000" stroke-linecap="round" stroke-linejoin="round" stroke-width="10.200000"
	d="
M1423.000000,1043.000000 
	C1423.333252,1044.666626 1424.543823,1047.145630 1423.866943,1047.876831 
	C1415.332642,1057.093872 1419.008423,1068.433716 1417.923218,1078.992065 
	C1412.760376,1129.221558 1403.447754,1178.519775 1375.796997,1221.870483 
	C1350.625977,1261.333374 1312.389893,1280.974731 1266.998901,1287.993042 
	C1224.890503,1294.503906 1182.739380,1293.471802 1141.048218,1285.739990 
	C1101.494873,1278.404785 1069.902466,1257.382812 1047.022095,1223.984863 
	C1023.399597,1189.503906 1006.772644,1151.980957 997.903687,1111.020874 
	C995.093689,1098.043213 994.243042,1084.166382 989.434265,1072.227905 
	C980.832397,1050.872681 969.330811,1030.517822 942.007080,1027.925293 
	C919.998352,1025.837158 898.484741,1026.217285 877.983459,1035.965332 
	C859.635681,1044.689331 848.230225,1058.399780 846.009277,1079.000977 
	C845.182983,1086.665405 841.362122,1092.946289 837.000000,1099.000000 
"/>
<path fill="none" opacity="1.000000" stroke="#000000" stroke-linecap="round" stroke-linejoin="round" stroke-width="8.500000"
	d="
M830.000000,1127.000000 
	C831.310486,1139.395386 825.247498,1150.317383 822.814331,1161.961182 
	C822.544189,1163.253906 821.782837,1164.726807 822.062866,1165.985962 
	C826.152344,1184.372803 817.635498,1201.285156 815.847595,1218.984619 
	C813.909790,1238.167480 811.619812,1257.275513 818.053894,1275.981445 
	C829.130676,1308.184937 849.647400,1331.847290 882.035767,1343.903931 
	C897.414490,1349.628540 912.504700,1348.565674 928.107117,1342.265259 
	C953.098938,1332.173462 972.603027,1315.847900 989.066833,1295.052979 
	C996.132019,1286.129150 998.184631,1275.714844 1000.044739,1265.007812 
	C1002.669556,1249.898926 1016.264771,1241.695679 1030.105591,1250.840210 
	C1057.471924,1268.920532 1070.844604,1307.291870 1060.098877,1338.034546 
	C1053.148926,1357.917847 1037.458496,1366.064575 1019.075500,1372.225220 
	C1006.895020,1376.307251 996.284607,1370.995850 985.000000,1369.500000 
"/>
<path fill="none" opacity="1.000000" stroke="#000000" stroke-linecap="round" stroke-linejoin="round" stroke-width="10.200000"
	d="
M392.000000,1031.000000 
	C397.968140,1026.864014 404.517334,1028.248047 410.278107,1027.987915 
	C412.900757,1031.358154 413.243225,1034.122925 412.991974,1036.999268 
	C410.865082,1061.345581 414.995941,1085.090820 418.739563,1109.040771 
	C423.575378,1139.978027 432.284149,1169.476562 447.124786,1196.932495 
	C461.522919,1223.569702 477.349609,1249.194946 503.936676,1266.099609 
	C519.704285,1276.125000 536.744934,1281.660522 554.963196,1285.190063 
	C579.883667,1290.018188 605.045288,1290.258179 629.976501,1288.638672 
	C667.964050,1286.171021 706.050598,1281.741699 740.917664,1264.830200 
	C774.980164,1248.308960 795.406616,1219.351562 808.948547,1184.979736 
	C811.600037,1178.249756 813.275452,1171.037598 821.000000,1168.000000 
"/>
<path fill="none" opacity="1.000000" stroke="#000000" stroke-linecap="round" stroke-linejoin="round" stroke-width="10.200000"
	d="
M1240.000000,1756.000000 
	C1245.642212,1747.932983 1250.357300,1738.782593 1261.997559,1737.964844 
	C1265.211182,1737.739136 1266.910156,1735.001831 1268.997437,1732.997314 
	C1285.601440,1717.052979 1300.753296,1699.893311 1314.152344,1681.108643 
	C1318.846191,1674.527954 1324.845459,1668.505859 1334.000000,1668.000000 
"/>
<path fill="none" opacity="1.000000" stroke="#000000" stroke-linecap="round" stroke-linejoin="round" stroke-width="11.900000"
	d="
M1362.000000,1628.000000 
	C1393.036499,1576.007202 1416.885254,1521.071777 1431.146484,1462.035400 
	C1435.893677,1442.383911 1441.305908,1422.902466 1445.051025,1403.009644 
	C1446.562012,1394.983887 1455.850220,1391.854614 1462.957397,1397.058105 
	C1471.200562,1403.093262 1479.506104,1408.891724 1490.003174,1409.969604 
	C1517.119507,1412.754150 1536.500732,1401.328369 1550.107300,1378.062744 
	C1562.694946,1356.539185 1568.032227,1332.673828 1573.926392,1308.981689 
	C1584.277954,1267.372559 1592.734131,1225.292603 1607.860107,1184.947510 
	C1616.926514,1160.764771 1625.795166,1136.456909 1631.057861,1111.011963 
	C1638.528687,1074.890503 1641.818726,1038.831177 1629.915405,1003.028137 
	C1624.295166,986.123779 1614.695190,972.756287 1594.993652,971.074402 
	C1587.749146,970.455811 1580.769287,972.429138 1573.996216,974.990051 
	C1569.815430,976.570862 1565.631836,978.273865 1561.000000,977.000000 
"/>
<path fill="none" opacity="1.000000" stroke="#000000" stroke-linecap="round" stroke-linejoin="round" stroke-width="15.300000"
	d="
M371.000000,959.000000 
	C365.985168,958.889160 361.014252,958.717712 355.984314,958.135437 
	C328.776611,954.985718 312.071136,969.690430 303.444916,995.150757 
	C294.522369,1021.485901 294.279633,1049.140259 297.543610,1077.053345 
	C299.246826,1091.619019 300.119843,1106.388184 302.033936,1120.995605 
	C304.220428,1137.681396 306.831970,1154.312378 308.950836,1171.006226 
	C310.850983,1185.976562 312.803284,1200.966064 313.889282,1216.007935 
	C315.498383,1238.295044 315.151642,1260.720825 316.453033,1282.973511 
	C317.907776,1307.848267 316.984131,1333.553711 328.073639,1356.965088 
	C339.453003,1380.988403 352.500885,1404.076904 378.089325,1415.805176 
	C389.333313,1420.958862 401.350586,1419.010620 411.871155,1412.782349 
	C416.601013,1409.982300 420.050446,1405.440918 425.912048,1403.703369 
	C429.563995,1402.620728 429.556427,1397.536865 428.915283,1394.015381 
	C422.680939,1359.773315 416.931061,1325.458862 411.793823,1291.030762 
	C410.708435,1283.756592 404.158417,1278.270508 403.713043,1270.015503 
	C403.314606,1262.630249 401.953003,1255.064209 399.091034,1247.963257 
	C398.351898,1246.129395 398.298584,1244.117310 399.881866,1241.915039 
	C404.494812,1235.498413 402.854034,1227.699951 401.718140,1221.048096 
	C395.990601,1187.508057 394.583527,1153.868774 396.997040,1119.999756 
	C397.020660,1119.668091 397.093872,1119.299072 396.986481,1119.004883 
	C391.945953,1105.201172 399.991974,1091.771362 398.086884,1077.988037 
	C396.343964,1065.377930 395.741516,1052.600830 393.718170,1040.045410 
	C393.200684,1036.834229 393.108948,1032.385498 389.953583,1030.063110 
	C380.478302,1023.089294 379.338348,1012.588501 381.432526,1003.095398 
	C384.170135,990.685852 379.153168,980.236877 377.000000,969.000000 
"/>
<path fill="none" opacity="1.000000" stroke="#000000" stroke-linecap="round" stroke-linejoin="round" stroke-width="15.300000"
	d="
M370.000000,918.000000 
	C373.671234,911.500244 372.473145,904.741516 370.990021,898.002197 
	C364.680145,869.330322 358.730011,840.569824 351.768646,812.056458 
	C349.556213,802.994385 351.297852,793.855774 349.000000,785.000000 
"/>
<path fill="none" opacity="1.000000" stroke="#000000" stroke-linecap="round" stroke-linejoin="round" stroke-width="15.300000"
	d="
M1312.000000,629.000000 
	C1305.545532,606.276001 1293.020630,585.644653 1286.156006,563.639404 
	C1279.169312,541.242554 1270.178467,518.447693 1269.874390,494.001556 
	C1269.625488,474.001740 1267.398560,453.821564 1260.671753,435.118042 
	C1246.645752,396.118622 1218.812622,371.240540 1177.982910,362.076141 
	C1154.849854,356.883820 1132.396118,356.663116 1111.918457,371.890350 
	C1094.120605,385.124817 1083.378052,411.621765 1094.408569,438.245026 
	C1101.812988,456.115936 1113.196045,469.815735 1126.088867,482.912476 
	C1146.145142,503.285980 1167.222046,522.663513 1180.050415,548.975403 
	C1195.006592,579.651489 1204.447144,611.261292 1205.604248,645.979858 
	C1206.424805,670.598511 1205.257324,695.575439 1211.760498,720.063599 
	C1221.564087,756.980042 1243.884888,784.075134 1273.963989,806.049316 
	C1295.872192,822.054321 1319.917969,835.200439 1339.038086,854.963135 
	C1351.107788,867.438354 1360.617798,881.241760 1366.269897,897.908447 
	C1368.429688,904.277344 1369.890137,909.820923 1367.000000,916.000000 
"/>
<path fill="none" opacity="1.000000" stroke="#000000" stroke-linecap="round" stroke-linejoin="round" stroke-width="11.900000"
	d="
M1166.000000,1624.000000 
	C1171.320435,1621.740234 1173.644531,1616.655518 1174.810669,1611.953003 
	C1181.688965,1584.217529 1180.531006,1556.223145 1169.490967,1530.216064 
	C1161.065674,1510.368530 1143.173462,1498.125977 1124.119751,1487.779541 
	C1103.320923,1476.485474 1080.985718,1468.787842 1059.917603,1458.163330 
	C1036.700439,1446.455322 1017.857361,1428.545898 995.978027,1415.035645 
	C983.468811,1407.311401 970.407593,1401.274902 954.997253,1403.984497 
	C937.667786,1407.031494 925.486938,1419.337891 932.960144,1439.015137 
	C934.566589,1443.244751 935.686584,1447.660645 936.996582,1452.001099 
	C942.127319,1469.000610 934.667297,1480.172607 917.001282,1482.012207 
	C914.658630,1482.256104 912.336121,1482.924561 909.999451,1482.950073 
	C903.847900,1483.017090 898.002319,1482.149414 891.898560,1480.342896 
	C882.150452,1477.458130 886.571655,1469.379395 884.035339,1463.983398 
	C883.461670,1462.762939 883.333313,1461.333374 883.000000,1460.000000 
"/>
<path fill="none" opacity="1.000000" stroke="#000000" stroke-linecap="round" stroke-linejoin="round" stroke-width="8.500000"
	d="
M671.000000,90.000000 
	C659.771667,82.797874 648.294678,88.358147 638.122131,91.407410 
	C593.620361,104.747047 559.728027,131.109634 538.571838,173.787750 
	C530.500977,190.069016 529.939270,207.405899 525.216980,224.061523 
	C514.657410,261.305450 492.860809,290.487183 462.925751,313.905090 
	C433.844788,336.654907 401.394501,353.247925 366.021301,364.069611 
	C361.200104,365.544556 356.666656,365.977753 352.000000,364.000000 
"/>
<path fill="none" opacity="1.000000" stroke="#000000" stroke-linecap="round" stroke-linejoin="round" stroke-width="11.900000"
	d="
M797.000000,945.000000 
	C800.931519,938.463074 797.880005,933.002075 793.952515,928.037537 
	C782.007751,912.939087 765.220947,904.645325 747.910889,898.240906 
	C719.529785,887.740417 689.780823,882.256775 660.033386,876.817444 
	C637.140076,872.631348 614.233765,868.236511 590.999817,868.213257 
	C548.682800,868.170898 509.178253,877.068481 479.080109,910.073059 
	C473.826538,915.833923 469.383636,922.274170 469.859711,931.007629 
	C470.133789,936.035522 466.757385,940.072266 462.935974,942.913879 
	C454.171204,949.431519 445.378510,955.828735 437.909637,963.916565 
	C436.027222,965.954895 432.992157,966.867981 430.000000,967.000000 
"/>
<path fill="none" opacity="1.000000" stroke="#000000" stroke-linecap="round" stroke-linejoin="round" stroke-width="13.600000"
	d="
M984.000000,1682.000000 
	C982.014465,1686.206299 981.167786,1690.462524 982.955872,1695.017334 
	C983.567322,1696.574829 984.502319,1698.795288 983.874634,1699.930664 
	C974.441711,1716.996582 988.569885,1726.564209 996.122498,1737.918457 
	C1003.238525,1748.616577 1012.613281,1757.580322 1019.160278,1768.907349 
	C1037.068237,1799.890259 1031.284058,1831.635742 1009.836731,1857.866455 
	C989.078857,1883.253662 961.277405,1896.767212 929.022766,1902.136963 
	C905.835083,1905.997192 882.990906,1905.456543 859.983887,1901.084717 
	C838.765625,1897.052612 821.960999,1886.919312 811.096313,1867.944824 
	C809.991150,1866.014771 808.682739,1864.689453 807.000000,1863.500000 
"/>
<path fill="none" opacity="1.000000" stroke="#000000" stroke-linecap="round" stroke-linejoin="round" stroke-width="13.600000"
	d="
M1009.000000,1496.000000 
	C1011.495544,1501.073608 1014.479187,1504.946777 1019.799683,1508.316284 
	C1040.790894,1521.610596 1061.422363,1535.412720 1083.970825,1546.061646 
	C1088.966431,1548.421021 1092.393311,1552.561157 1094.035278,1558.107544 
	C1093.023804,1560.196411 1091.941284,1561.932007 1089.002319,1562.054810 
	C1065.800049,1563.023071 1042.962280,1561.386230 1019.916138,1557.496704 
	C999.632019,1554.073486 978.992737,1549.457153 957.995117,1552.970947 
	C951.353638,1554.082397 945.164490,1556.476074 939.002747,1559.006714 
	C919.328735,1567.086304 899.572083,1564.808716 880.028992,1558.904053 
	C863.436707,1553.890869 847.305664,1556.855713 830.992249,1559.959351 
	C806.154358,1564.684814 781.599609,1571.467773 756.000671,1570.966675 
	C750.662842,1570.862183 745.333313,1570.333374 740.000000,1570.000122 
"/>
<path fill="none" opacity="1.000000" stroke="#000000" stroke-linecap="round" stroke-linejoin="round" stroke-width="10.200000"
	d="
M1372.000000,917.000000 
	C1355.416626,918.448181 1344.032959,906.246704 1330.000000,901.000000 
	C1307.924927,871.232300 1274.368530,872.324585 1242.975342,870.403320 
	C1200.792358,867.821777 1158.591309,870.850830 1117.023193,879.116394 
	C1090.763428,884.337952 1064.859985,890.977234 1041.955444,905.931763 
	C1036.301392,909.623291 1031.487549,914.133179 1027.047119,919.042603 
	C1017.017700,930.130981 1019.361023,940.927429 1032.986938,948.025085 
	C1036.430664,949.818848 1040.280151,950.977478 1043.000000,954.000000 
"/>
<path fill="none" opacity="1.000000" stroke="#000000" stroke-linecap="round" stroke-linejoin="round" stroke-width="8.500000"
	d="
M835.000000,461.000000 
	C832.130127,450.753571 837.238037,441.329254 839.461914,432.111450 
	C849.579529,390.174927 841.286072,350.266235 827.688354,311.108215 
	C820.714417,291.025208 810.634888,272.078339 799.158813,253.899750 
	C783.552307,229.178436 761.802246,221.808167 733.972961,226.850616 
	C716.952087,229.934662 700.572815,234.320572 684.913940,241.820374 
	C679.113098,244.598724 672.333313,245.333313 666.000000,246.999985 
"/>
<path fill="none" opacity="1.000000" stroke="#000000" stroke-linecap="round" stroke-linejoin="round" stroke-width="11.900000"
	d="
M879.000000,1458.000000 
	C883.458923,1460.752075 886.089294,1458.950928 889.132568,1455.104858 
	C894.624451,1448.164307 896.614685,1439.796021 899.915039,1431.964233 
	C900.511414,1430.548950 900.115906,1428.657227 899.981750,1427.001465 
	C898.831665,1412.804688 879.369385,1398.548340 864.990540,1400.942993 
	C848.500610,1403.689453 834.967224,1412.518921 822.084778,1422.113892 
	C784.464111,1450.133911 745.415710,1475.656982 703.070068,1496.144775 
	C671.739319,1511.303223 649.381714,1534.489014 641.872742,1569.973022 
	C638.611023,1585.386719 637.846985,1600.528931 640.853455,1616.028442 
	C641.996643,1621.922363 644.189392,1626.078491 649.996277,1628.011108 
	C655.742615,1629.923462 659.675781,1626.232788 662.864685,1622.871582 
	C669.189453,1616.204834 673.506958,1608.050049 678.188416,1600.111084 
	C686.174561,1586.567871 695.655579,1574.077515 708.957153,1564.937622 
	C719.756592,1557.517212 736.131836,1562.469116 739.870056,1575.038696 
	C741.077332,1579.098267 743.058777,1582.310425 746.023743,1584.973633 
	C777.348816,1613.109497 810.752075,1637.495972 852.957214,1647.186401 
	C866.558594,1650.309448 880.015503,1653.339111 893.998413,1652.943115 
	C901.396118,1652.733643 908.014771,1654.007568 913.000000,1660.000000 
"/>
<path fill="none" opacity="1.000000" stroke="#000000" stroke-linecap="round" stroke-linejoin="round" stroke-width="13.600000"
	d="
M956.000000,1655.000000 
	C962.138367,1647.198730 971.539795,1647.488037 979.938232,1644.806641 
	C1015.016357,1633.606689 1044.908203,1613.727051 1070.952515,1587.952026 
	C1078.552368,1580.430420 1089.398682,1575.385620 1091.000000,1563.000000 
"/>
<path fill="none" opacity="1.000000" stroke="#000000" stroke-linecap="round" stroke-linejoin="round" stroke-width="13.600000"
	d="
M334.000000,1004.000000 
	C322.151733,1004.926819 320.707184,1014.650208 319.190277,1023.034424 
	C315.508240,1043.385376 317.503815,1063.610840 320.565216,1084.065063 
	C322.704132,1098.356201 324.758759,1112.703247 327.036011,1126.994263 
	C330.226593,1147.016968 334.467499,1166.910645 336.712738,1187.032104 
	C338.160461,1200.006592 339.265015,1213.039429 340.987152,1226.001709 
	C343.697235,1246.400513 349.195404,1265.724487 360.863617,1283.091675 
	C364.788574,1288.933838 370.413300,1292.769409 376.149048,1294.508423 
	C381.388641,1296.097046 388.611145,1297.289673 393.174347,1290.110840 
	C395.889435,1285.839355 400.333313,1282.666626 403.999969,1279.000000 
"/>
<path fill="none" opacity="1.000000" stroke="#000000" stroke-linecap="round" stroke-linejoin="round" stroke-width="11.900000"
	d="
M1635.000000,619.000000 
	C1635.105469,626.676575 1635.576782,634.368835 1635.701172,642.004883 
	C1635.850586,651.181030 1630.915527,659.657959 1629.817505,668.978516 
	C1626.591064,696.369568 1613.035522,720.464905 1603.881836,745.957581 
	C1598.040405,762.225830 1595.531006,779.167847 1595.305176,796.004089 
	C1594.542603,852.881165 1582.647705,907.261047 1562.194092,960.075195 
	C1561.049316,963.031677 1559.409790,966.192200 1559.864990,970.016052 
	C1561.081665,980.236328 1553.878052,985.443542 1545.920532,987.722534 
	C1533.092407,991.396484 1526.040771,998.898682 1525.068481,1012.005066 
	C1524.672119,1017.346252 1520.575806,1020.193665 1517.927368,1023.948792 
	C1504.993164,1042.287598 1499.494141,1062.766724 1497.736572,1084.979126 
	C1496.365112,1102.312500 1495.714844,1119.694214 1494.069824,1137.006592 
	C1493.660522,1141.316650 1493.693237,1145.741577 1495.000000,1150.000000 
"/>
<path fill="none" opacity="1.000000" stroke="#000000" stroke-linecap="round" stroke-linejoin="round" stroke-width="11.900000"
	d="
M849.000000,1013.000000 
	C840.381165,1002.943848 838.306030,989.546509 830.516907,978.631165 
	C820.820801,965.043457 806.445923,957.246338 795.725830,945.244873 
	C794.225159,943.564819 789.285095,944.430115 785.968201,943.078064 
	C753.358215,929.785461 720.264954,918.899780 685.060608,913.597412 
	C634.874390,906.038635 585.458801,908.861389 535.999023,917.994568 
	C516.933350,921.515259 498.230225,926.430908 480.055328,933.149719 
	C476.875916,934.325073 473.976562,933.455872 471.000000,934.000000 
"/>
<path fill="none" opacity="1.000000" stroke="#000000" stroke-linecap="round" stroke-linejoin="round" stroke-width="17.000000"
	d="
M1056.000000,75.000000 
	C1057.211426,74.292686 1056.735352,73.031677 1057.045898,72.014000 
	C1064.079468,48.965366 1056.256348,37.588913 1032.035034,32.822010 
	C1006.748840,27.845545 983.868286,35.241787 961.004333,44.011303 
	C936.366150,53.461330 915.172363,69.632805 890.998718,79.996964 
	C875.019287,86.847900 858.801819,92.621834 840.998413,92.049271 
	C834.343567,91.835243 827.340027,91.290932 824.258667,84.875740 
	C821.501160,79.134727 825.945740,73.530685 829.151611,69.109962 
	C844.724854,47.635494 846.164856,46.770153 874.989563,30.980991 
	C882.059387,27.108410 889.000000,22.999981 896.000000,18.999981 
"/>
<path fill="none" opacity="1.000000" stroke="#000000" stroke-linecap="round" stroke-linejoin="round" stroke-width="15.300000"
	d="
M1163.000000,51.000000 
	C1162.792603,54.578747 1164.298950,58.910702 1158.004272,59.126366 
	C1154.442627,59.248394 1151.743408,62.298737 1148.045898,63.190445 
	C1137.994751,65.614426 1136.623901,75.537140 1133.295044,83.129356 
	C1131.415283,87.416748 1136.264893,89.932823 1139.969849,92.052658 
	C1151.504028,98.652184 1164.498413,98.826668 1177.017090,99.774117 
	C1204.295166,101.838608 1231.767334,101.621834 1258.976318,104.245621 
	C1299.482910,108.151718 1339.013550,116.603058 1374.993286,137.011765 
	C1389.807861,145.414886 1402.742065,156.255173 1415.062988,167.933563 
	C1418.690186,171.371658 1420.599854,175.455627 1422.116455,180.372528 
	C1416.333374,184.395920 1411.012939,183.156296 1404.911865,180.180634 
	C1397.366333,176.500443 1389.507935,173.403885 1381.047241,171.757034 
	C1376.223999,170.818161 1372.998169,171.548950 1370.115845,174.999054 
	C1370.980957,187.346039 1379.570312,195.110657 1388.148926,201.809204 
	C1414.550537,222.424652 1443.617188,237.207581 1477.988892,239.191452 
	C1481.910522,239.417786 1486.452393,239.190521 1490.000000,242.000000 
"/>
<path fill="none" opacity="1.000000" stroke="#000000" stroke-linecap="round" stroke-linejoin="round" stroke-width="17.000000"
	d="
M335.000000,447.000000 
	C337.651031,453.056976 336.010315,458.533508 333.030212,464.016418 
	C318.889008,490.033752 300.889648,513.129272 281.120941,535.108765 
	C258.744293,559.987854 238.105270,586.206665 223.933121,616.969177 
	C208.791306,649.836426 204.403885,683.684326 213.022186,718.994568 
	C214.217819,723.893188 216.209549,728.965881 220.135559,731.813110 
	C226.972870,736.771606 229.961487,743.546021 233.225662,750.899841 
	C238.302231,762.336792 244.915878,773.078491 254.000000,782.000000 
"/>
<path fill="none" opacity="1.000000" stroke="#000000" stroke-linecap="round" stroke-linejoin="round" stroke-width="6.800000"
	d="
M1532.000000,469.000000 
	C1552.372803,475.960480 1562.996460,493.021973 1572.809448,510.109406 
	C1588.173950,536.863464 1594.703369,566.248718 1597.252075,596.979065 
	C1599.948730,629.492065 1593.485840,660.788696 1586.568604,691.904114 
	C1582.940430,708.224670 1580.875977,724.537598 1579.000000,741.000000 
"/>
<path fill="none" opacity="1.000000" stroke="#000000" stroke-linecap="round" stroke-linejoin="round" stroke-width="13.600000"
	d="
M470.000000,121.000000 
	C474.314270,128.451569 482.345276,131.924866 488.091187,137.912506 
	C499.598450,149.903946 503.309998,170.897354 488.889465,185.893692 
	C481.665283,193.406326 472.481781,198.447479 463.058044,203.117111 
	C445.014954,212.057800 426.159454,219.126297 409.808380,231.751816 
	C382.714417,252.672485 368.854279,280.602264 362.029968,313.006317 
	C359.510986,324.967224 357.392639,337.011902 354.987091,348.997406 
	C350.580017,370.955444 338.842285,388.761597 322.935913,403.932800 
	C312.634308,413.758270 305.047058,425.291260 299.012482,438.005920 
	C297.924774,440.297638 295.895233,442.809448 296.175446,444.977325 
	C298.339661,461.720825 288.089813,476.526978 289.000000,493.000000 
"/>
<path fill="none" opacity="1.000000" stroke="#000000" stroke-linecap="round" stroke-linejoin="round" stroke-width="11.900000"
	d="
M1597.000000,418.000000 
	C1599.612793,424.373779 1605.188110,428.521332 1609.023438,433.983551 
	C1613.279541,440.045319 1616.602417,445.939972 1617.374878,453.963898 
	C1618.531738,465.979767 1626.593262,475.881409 1631.185547,486.922791 
	C1645.496948,521.332031 1655.207642,556.594788 1658.383911,593.967407 
	C1660.302490,616.542786 1660.069702,638.828613 1656.628296,660.942139 
	C1654.966553,671.619751 1649.233276,681.528687 1649.840942,693.008423 
	C1650.265991,701.039856 1649.910645,709.238831 1647.000000,717.000000 
"/>
<path fill="none" opacity="1.000000" stroke="#000000" stroke-linecap="round" stroke-linejoin="round" stroke-width="10.200000"
	d="
M579.000000,997.000000 
	C574.734619,996.074219 570.383972,996.391663 567.067627,999.083374 
	C556.252808,1007.861023 544.649963,1015.717712 535.842224,1026.875488 
	C533.072449,1030.384277 532.086548,1033.503418 534.094604,1036.944824 
	C538.158264,1043.909180 533.861755,1051.915283 537.869629,1059.072998 
	C549.627075,1080.070679 567.863770,1092.772339 590.038879,1099.878662 
	C636.823669,1114.871826 680.350098,1106.120117 720.964233,1079.944458 
	C733.859924,1071.633301 746.198547,1062.458984 759.070068,1054.107910 
	C763.849915,1051.006836 765.988464,1046.260620 768.984741,1041.989258 
	C772.411072,1037.105103 772.315063,1032.486816 768.024109,1027.977051 
	C758.261292,1017.716614 745.826294,1010.973572 733.812134,1004.340332 
	C714.033447,993.420288 693.246338,984.132019 670.977478,979.099609 
	C665.461548,977.853027 659.375671,975.505249 654.100281,979.145325 
	C650.461304,981.656250 648.356689,978.445801 646.085693,977.728638 
	C636.785889,974.791870 628.600891,974.617554 622.000000,983.000000 
"/>
<path fill="none" opacity="1.000000" stroke="#000000" stroke-linecap="round" stroke-linejoin="round" stroke-width="15.300000"
	d="
M547.000000,373.000000 
	C542.187317,381.533112 539.725708,391.024689 535.981689,399.992340 
	C532.386597,408.603424 529.324829,417.655060 521.939758,423.929077 
	C516.792969,428.301636 516.958679,435.329163 512.188171,440.184845 
	C498.686371,453.927704 482.044830,461.045105 464.011475,466.041473 
	C449.821136,469.973083 435.882721,474.355835 422.923645,481.868286 
	C397.311096,496.715942 383.266418,517.778320 382.804749,547.997009 
	C382.535187,565.642090 385.911469,582.417114 391.058228,598.981934 
	C398.287384,622.248962 407.517426,644.939331 411.934326,669.012024 
	C416.585236,694.359924 419.314941,719.440979 407.204102,744.100220 
	C397.825073,763.197205 381.960968,772.680054 363.013672,779.040710 
	C354.539032,781.885620 346.070251,783.820068 337.012024,784.252075 
	C329.486084,784.611084 323.749908,781.170654 318.106201,777.821045 
	C309.465637,772.692871 300.537659,767.951111 292.848938,761.171326 
	C289.295349,758.037842 284.403687,755.753845 279.000000,757.000000 
"/>
<path fill="none" opacity="1.000000" stroke="#000000" stroke-linecap="round" stroke-linejoin="round" stroke-width="11.900000"
	d="
M992.000000,1369.000000 
	C995.415222,1360.758789 1004.159180,1358.519043 1010.108887,1353.119995 
	C1013.625610,1349.928833 1018.981750,1347.495361 1016.741699,1342.107422 
	C1014.720215,1337.245361 1009.787415,1335.361572 1004.013489,1334.848511 
	C979.375793,1332.659180 961.462097,1342.976929 947.948547,1362.965210 
	C929.340637,1390.488892 890.614197,1391.412231 870.020874,1364.983765 
	C859.311096,1351.239258 847.051758,1339.746948 828.978821,1337.147217 
	C824.453735,1336.496338 819.452942,1336.911255 815.044739,1338.158325 
	C806.055481,1340.701538 804.462219,1348.444580 810.983948,1355.015991 
	C815.664001,1359.731689 822.583679,1361.839355 826.000000,1368.000000 
"/>
<path fill="none" opacity="1.000000" stroke="#000000" stroke-linecap="round" stroke-linejoin="round" stroke-width="11.900000"
	d="
M1376.500000,556.000000 
	C1374.000000,568.333313 1371.194458,580.615967 1369.135742,593.022522 
	C1368.183594,598.760986 1372.302612,603.831116 1372.234619,610.002563 
	C1371.776611,651.547424 1379.950073,691.073608 1399.858643,728.076050 
	C1416.142212,758.340942 1440.473877,778.607666 1473.174561,787.346985 
	C1481.564697,789.589172 1492.584717,794.269836 1502.396606,785.440796 
	C1505.527954,782.623230 1513.333374,785.000000 1519.000000,785.000000 
"/>
<path fill="none" opacity="1.000000" stroke="#000000" stroke-linecap="round" stroke-linejoin="round" stroke-width="11.900000"
	d="
M1509.500000,222.000000 
	C1506.743408,227.285797 1502.153076,230.995743 1497.946533,234.942978 
	C1489.432983,242.931366 1486.902222,256.055969 1493.065674,265.959137 
	C1503.744141,283.117126 1519.786377,294.034882 1536.906128,304.158813 
	C1575.998779,327.276886 1608.296387,357.491180 1629.976685,398.012482 
	C1638.840942,414.580170 1642.935303,432.650757 1645.985474,451.002411 
	C1646.577393,454.564209 1644.371460,456.852356 1641.622314,459.329559 
	C1632.114380,458.147858 1629.356445,444.136932 1618.000000,446.000000 
"/>
<path fill="none" opacity="1.000000" stroke="#000000" stroke-linecap="round" stroke-linejoin="round" stroke-width="11.900000"
	d="
M1397.000000,1045.000000 
	C1362.475830,1048.608276 1334.395020,1034.065796 1309.075806,1012.909302 
	C1282.140137,990.402100 1250.577637,978.363281 1216.918945,971.391479 
	C1209.969482,969.951965 1202.460571,968.858032 1195.000732,968.826599 
	C1187.484985,968.794983 1180.822632,970.186523 1175.000000,975.000000 
"/>
<path fill="none" opacity="1.000000" stroke="#000000" stroke-linecap="round" stroke-linejoin="round" stroke-width="11.900000"
	d="
M1146.000000,981.000000 
	C1133.845703,981.825806 1123.314087,987.368713 1113.126831,993.220764 
	C1109.166992,995.495483 1106.025757,998.144287 1101.000366,998.155701 
	C1093.739258,998.172241 1089.263306,1004.239502 1084.170288,1008.218018 
	C1078.896240,1012.337769 1073.437744,1016.226990 1067.896729,1019.841614 
	C1059.632812,1025.232422 1050.204712,1020.182739 1050.192871,1009.999756 
	C1050.173462,993.101562 1054.210571,978.089905 1070.890869,968.804016 
	C1083.946533,961.535889 1094.896484,950.891724 1108.855591,944.675842 
	C1113.392456,942.655762 1118.884277,939.722168 1121.000000,934.000000 
"/>
<path fill="none" opacity="1.000000" stroke="#000000" stroke-linecap="round" stroke-linejoin="round" stroke-width="17.000000"
	d="
M844.000000,46.000000 
	C834.150330,41.026619 824.623840,44.329880 814.992737,46.973454 
	C767.000854,60.146347 726.201965,85.744957 694.570496,123.478241 
	C678.641602,142.479904 669.190491,166.944702 665.192749,192.030716 
	C656.353821,247.495773 671.136475,296.072479 708.817932,338.162964 
	C727.164734,358.656464 746.552429,378.491913 760.077881,402.956940 
	C769.945435,420.805420 775.338989,439.952515 776.849976,460.011292 
	C779.305420,492.609161 771.260132,522.741455 752.984131,549.989380 
	C750.507812,553.681274 748.132263,557.360657 748.000000,562.000000 
"/>
<path fill="none" opacity="1.000000" stroke="#000000" stroke-linecap="round" stroke-linejoin="round" stroke-width="6.800000"
	d="
M1283.000000,560.000000 
	C1276.715820,560.045532 1273.951416,555.808838 1270.891602,551.070007 
	C1260.360107,534.759644 1249.738159,518.487244 1237.983765,503.012360 
	C1217.159058,475.596436 1188.861450,460.205872 1156.018677,451.925995 
	C1141.907104,448.368378 1127.846558,444.453308 1114.070435,439.791870 
	C1107.986084,437.733124 1102.666626,437.641754 1097.000000,440.000000 
"/>
<path fill="none" opacity="1.000000" stroke="#000000" stroke-linecap="round" stroke-linejoin="round" stroke-width="8.500000"
	d="
M664.000000,252.000000 
	C630.507141,263.678070 602.176392,283.606140 575.994690,306.994080 
	C547.080383,332.823029 529.774231,365.761719 518.126831,402.040710 
	C515.801270,409.284210 513.414612,417.204742 520.000000,424.000000 
"/>
<path fill="none" opacity="1.000000" stroke="#000000" stroke-linecap="round" stroke-linejoin="round" stroke-width="8.500000"
	d="
M1358.000000,315.000000 
	C1365.129517,330.507843 1375.840576,343.793030 1385.180908,357.880035 
	C1398.069214,377.317810 1411.619873,396.265076 1426.727295,414.229309 
	C1448.076660,439.615784 1475.962646,451.457184 1507.040161,457.803375 
	C1514.885010,459.405396 1522.210938,462.469299 1530.000000,464.000000 
"/>
<path fill="none" opacity="1.000000" stroke="#000000" stroke-linecap="round" stroke-linejoin="round" stroke-width="15.300000"
	d="
M966.000000,232.000000 
	C963.376343,239.458069 967.776062,245.513092 970.001831,251.999359 
	C984.750916,294.980377 980.752502,337.183899 965.062744,379.023529 
	C959.848511,392.928192 951.780029,405.425751 946.118652,419.049316 
	C941.730957,429.608215 934.597046,437.237946 925.046204,443.075623 
	C923.521301,444.007660 921.634583,444.472290 920.884033,446.965088 
	C916.254272,462.341522 901.921997,468.572601 890.968872,477.963684 
	C886.020203,482.206635 880.246765,483.287079 874.000000,481.000000 
"/>
<path fill="none" opacity="1.000000" stroke="#000000" stroke-linecap="round" stroke-linejoin="round" stroke-width="8.500000"
	d="
M1473.000000,1027.000000 
	C1478.546753,1038.112305 1476.780396,1050.415161 1477.587280,1062.028687 
	C1479.271973,1086.276733 1481.538818,1110.645874 1479.850830,1134.989624 
	C1478.787109,1150.332275 1479.068726,1165.800171 1476.112061,1181.021729 
	C1475.363403,1184.876343 1474.713745,1189.587769 1476.225952,1192.896729 
	C1482.303833,1206.196655 1477.555420,1218.908325 1473.652100,1230.886597 
	C1467.134277,1250.889282 1465.721191,1271.655396 1462.337036,1292.055908 
	C1457.453857,1321.492065 1451.162231,1350.642456 1445.517456,1379.906860 
	C1444.246826,1386.494507 1444.920288,1391.436035 1447.000000,1397.000000 
"/>
<path fill="none" opacity="1.000000" stroke="#000000" stroke-linecap="round" stroke-linejoin="round" stroke-width="11.900000"
	d="
M1166.000000,1626.000000 
	C1151.979492,1615.857544 1147.618530,1599.684326 1142.337646,1584.879517 
	C1130.826416,1552.608032 1109.543457,1530.280762 1078.998169,1516.004028 
	C1062.325684,1508.211426 1045.220703,1501.470581 1028.031494,1494.917358 
	C1025.043823,1493.778442 1022.018921,1492.347534 1019.026794,1493.105713 
	C1009.131104,1495.612793 1000.860718,1491.319702 991.922363,1488.224121 
	C975.322021,1482.474487 959.777466,1483.909912 943.770203,1493.621216 
	C918.936890,1508.687134 902.873413,1510.907349 878.088196,1492.878784 
	C869.520630,1486.646729 861.359192,1482.635132 850.959595,1487.920410 
	C849.183167,1488.823486 846.817200,1488.218018 845.948608,1490.983887 
	C843.459900,1498.908325 836.361511,1502.027588 830.022949,1506.036255 
	C800.637695,1524.620972 771.333374,1543.333374 742.000000,1562.000000 
"/>
<path fill="none" opacity="1.000000" stroke="#000000" stroke-linecap="round" stroke-linejoin="round" stroke-width="11.900000"
	d="
M385.000000,993.000000 
	C392.333344,995.464844 399.695557,993.215088 406.993500,992.864746 
	C419.216492,992.277954 430.151733,973.655701 427.176849,962.950867 
	C423.911560,951.200867 428.755554,939.519714 430.407715,928.058777 
	C435.198639,894.824280 438.310089,861.538147 438.986481,827.999756 
	C439.564880,799.319275 447.889526,772.444336 460.262360,747.128235 
	C474.725281,717.535706 489.626740,688.058533 507.104675,660.065369 
	C515.037109,647.360535 521.662292,633.805176 531.063660,622.050903 
	C533.692871,618.763672 535.978760,615.230835 539.923462,612.872009 
	C548.665955,607.644104 550.118286,599.891846 548.296265,589.945740 
	C546.465210,579.950195 549.587158,569.852783 552.005554,560.001343 
	C559.060852,531.260925 568.465332,503.435822 583.989746,477.993774 
	C586.487244,473.900787 589.457214,470.174103 593.031616,467.035980 
	C600.417236,460.551727 609.411011,461.183502 611.520020,470.113373 
	C615.259033,485.944946 628.898865,496.717651 631.139221,512.980835 
	C631.936401,518.767273 634.125183,524.405762 636.064697,529.977478 
	C637.668640,534.585144 638.212952,539.146362 643.766357,542.398926 
	C650.288696,546.218872 649.328552,555.340027 651.929565,562.027405 
	C668.371399,604.299255 696.730530,633.791199 740.963623,647.120667 
	C758.315247,652.349487 775.567993,650.898682 793.000000,649.000000 
"/>
<path fill="none" opacity="1.000000" stroke="#000000" stroke-linecap="round" stroke-linejoin="round" stroke-width="8.500000"
	d="
M1412.000000,627.000000 
	C1403.176514,636.104126 1409.019043,646.777527 1410.464722,655.926575 
	C1414.653687,682.432861 1423.336182,707.693481 1439.009644,729.993286 
	C1452.955811,749.835876 1470.239746,765.993347 1492.047852,776.904358 
	C1495.826172,778.794739 1499.995972,779.767761 1502.000000,784.000000 
"/>
<path fill="none" opacity="1.000000" stroke="#000000" stroke-linecap="round" stroke-linejoin="round" stroke-width="15.300000"
	d="
M935.000000,522.000000 
	C948.894836,522.576111 960.742493,515.884705 972.888977,510.738007 
	C976.436279,509.234955 978.967773,508.095428 983.033630,508.807922 
	C995.272156,510.952606 1003.878113,502.684967 1011.818481,495.790955 
	C1040.976685,470.475311 1058.979736,438.779510 1064.070190,400.009216 
	C1069.951660,355.214081 1065.031250,312.835236 1037.990112,275.007050 
	C1025.019409,256.862122 1008.175110,243.309372 987.949707,234.110641 
	C982.092957,231.446976 975.791443,229.174881 968.996765,230.987885 
	C965.686646,231.871124 963.328857,228.186935 960.000000,229.000000 
"/>
<path fill="none" opacity="1.000000" stroke="#000000" stroke-linecap="round" stroke-linejoin="round" stroke-width="10.200000"
	d="
M1480.000000,1203.000000 
	C1488.383179,1197.018677 1487.797363,1187.437134 1488.715820,1178.969116 
	C1489.436890,1172.319946 1491.621826,1165.877197 1491.275146,1158.986206 
	C1491.141724,1156.334351 1492.816406,1152.718628 1497.039429,1150.934326 
	C1506.512695,1164.235352 1511.079102,1179.979858 1515.002075,1195.999512 
	C1520.173340,1217.116577 1514.639160,1234.365479 1499.300293,1250.289307 
	C1484.975342,1265.160522 1480.097778,1283.629761 1488.896973,1304.044434 
	C1491.536133,1310.167725 1494.341309,1314.629395 1502.010010,1313.048340 
	C1506.932617,1312.033447 1507.149658,1315.486450 1507.000000,1319.000000 
"/>
<path fill="none" opacity="1.000000" stroke="#000000" stroke-linecap="round" stroke-linejoin="round" stroke-width="15.300000"
	d="
M254.000000,716.000000 
	C265.321564,734.496704 277.677124,752.256775 280.237885,774.973206 
	C282.867828,798.303833 292.496216,819.169128 308.029755,836.974060 
	C327.184387,858.929565 345.348999,881.343933 354.324707,909.897949 
	C355.952484,915.076477 360.793671,920.029114 367.000000,922.000000 
"/>
<path fill="none" opacity="1.000000" stroke="#000000" stroke-linecap="round" stroke-linejoin="round" stroke-width="11.900000"
	d="
M789.000000,1245.000000 
	C789.285278,1252.055786 783.819824,1256.417969 780.949951,1261.974121 
	C771.209534,1280.831665 763.957581,1300.064697 764.798340,1322.007690 
	C765.775879,1347.518311 782.710022,1369.869629 811.016846,1373.881348 
	C813.531555,1374.237915 816.483032,1375.023560 819.014954,1373.018799 
	C824.751221,1368.476562 831.590332,1370.516602 838.000000,1370.000000 
"/>
<path fill="none" opacity="1.000000" stroke="#000000" stroke-linecap="round" stroke-linejoin="round" stroke-width="8.500000"
	d="
M642.000000,358.000000 
	C653.451843,393.021393 662.058594,429.053925 691.726990,455.308502 
	C710.044495,471.518250 730.682678,478.452728 754.002930,478.644958 
	C761.569885,478.707367 769.343079,478.557953 777.000000,478.000000 
"/>
<path fill="none" opacity="1.000000" stroke="#000000" stroke-linecap="round" stroke-linejoin="round" stroke-width="11.900000"
	d="
M999.000000,1016.000000 
	C976.659363,1009.961365 954.569885,1002.008362 931.006165,1003.130066 
	C905.502014,1004.343994 880.107300,1007.009033 854.974304,1011.867004 
	C850.962097,1012.642578 847.027588,1013.354736 848.169800,1017.957886 
	C850.956665,1029.189575 847.383728,1041.481323 854.000000,1052.000000 
"/>
<path fill="none" opacity="1.000000" stroke="#000000" stroke-linecap="round" stroke-linejoin="round" stroke-width="11.900000"
	d="
M978.000000,507.000000 
	C979.661499,497.390411 986.370789,491.247375 992.984802,484.983948 
	C1003.625244,474.907440 1012.407349,463.702362 1016.079712,449.019928 
	C1019.095764,436.961243 1014.774963,423.630524 995.970642,425.737854 
	C984.421448,427.032104 973.324402,429.949005 961.992737,431.959015 
	C955.634827,433.086792 949.185669,434.139099 943.000000,431.000000 
"/>
<path fill="none" opacity="1.000000" stroke="#000000" stroke-linecap="round" stroke-linejoin="round" stroke-width="13.600000"
	d="
M837.000000,1683.000000 
	C841.115295,1694.046143 851.083130,1699.247437 860.091797,1704.852539 
	C886.715210,1721.417480 915.677551,1724.953369 945.984009,1717.931030 
	C957.083252,1715.359253 968.000000,1712.000000 979.000000,1709.000000 
"/>
<path fill="none" opacity="1.000000" stroke="#000000" stroke-linecap="round" stroke-linejoin="round" stroke-width="8.500000"
	d="
M617.000000,552.000000 
	C620.602600,569.598877 616.957397,587.028503 613.580078,603.916016 
	C608.804871,627.792725 600.663025,650.934570 589.961609,672.981384 
	C586.912231,679.263733 584.560303,686.140625 578.000000,690.000000 
"/>
<path fill="none" opacity="1.000000" stroke="#000000" stroke-linecap="round" stroke-linejoin="round" stroke-width="10.200000"
	d="
M768.000000,1042.000000 
	C753.938660,1037.029053 741.066528,1043.213135 728.024170,1046.593384 
	C700.976807,1053.603394 674.234741,1061.940796 646.001465,1063.038086 
	C639.856201,1063.276733 634.230957,1062.540283 630.157715,1057.081299 
	C632.713745,1053.433472 636.770752,1051.134888 640.992676,1048.985596 
	C665.287537,1036.616943 670.024414,1002.143494 654.062561,984.941956 
	C653.243469,984.059387 653.333313,982.333313 653.000000,981.000000 
"/>
<path fill="none" opacity="1.000000" stroke="#000000" stroke-linecap="round" stroke-linejoin="round" stroke-width="10.200000"
	d="
M990.000000,1068.000000 
	C996.773254,1060.909790 996.169617,1051.350220 996.680298,1042.980469 
	C998.874573,1007.015198 1013.954102,977.806702 1042.277344,956.366455 
	C1053.345825,947.987732 1066.769043,942.133423 1080.048218,937.128052 
	C1086.231323,934.797546 1092.710938,932.935974 1098.879517,930.671631 
	C1106.062500,928.034790 1112.343262,927.785706 1118.990112,931.020386 
	C1120.060913,931.541504 1121.359009,933.141174 1121.946655,932.880005 
	C1132.520874,928.180420 1142.346191,930.760315 1153.143921,933.414673 
	C1162.565674,935.730713 1173.097778,930.744141 1183.013916,930.372070 
	C1205.636353,929.523193 1228.091675,926.901062 1251.069824,929.342224 
	C1272.831787,931.654114 1294.822632,933.446594 1315.869141,938.540649 
	C1342.879517,945.078125 1370.005127,954.125549 1384.889526,981.061035 
	C1393.571533,996.772095 1396.448364,1014.290588 1398.001709,1031.999878 
	C1398.323486,1035.667480 1398.666748,1039.333374 1399.000122,1043.000000 
"/>
<path fill="none" opacity="1.000000" stroke="#000000" stroke-linecap="round" stroke-linejoin="round" stroke-width="6.800000"
	d="
M568.000000,713.000000 
	C549.871216,737.159668 530.357239,759.927490 505.020752,777.030762 
	C489.092377,787.783081 471.408783,794.103638 453.077209,799.273743 
	C449.539795,800.271423 447.000000,797.675476 444.000000,799.000000 
"/>
<path fill="none" opacity="1.000000" stroke="#000000" stroke-linecap="round" stroke-linejoin="round" stroke-width="8.500000"
	d="
M794.000000,973.000000 
	C806.116638,975.449280 809.826904,986.285950 814.822632,995.100525 
	C829.229614,1020.520386 833.792053,1048.124756 829.857605,1076.980591 
	C828.841125,1084.435791 829.392456,1090.988159 834.000000,1097.000000 
"/>
<path fill="none" opacity="1.000000" stroke="#000000" stroke-linecap="round" stroke-linejoin="round" stroke-width="11.900000"
	d="
M845.000000,1490.000000 
	C834.888550,1483.737427 825.864197,1489.513062 817.064453,1493.155640 
	C804.047119,1498.544067 792.959106,1507.118408 781.845642,1515.802490 
	C769.782837,1525.227905 757.441589,1534.496094 743.968262,1541.942505 
	C735.531677,1546.605347 730.647278,1553.099121 731.000000,1563.000000 
"/>
<path fill="none" opacity="1.000000" stroke="#000000" stroke-linecap="round" stroke-linejoin="round" stroke-width="6.800000"
	d="
M1203.000000,987.000000 
	C1210.494629,982.480591 1216.518799,988.340210 1222.965698,990.124084 
	C1245.131348,996.257080 1264.627075,1008.092590 1283.912842,1020.139587 
	C1287.828247,1022.585449 1291.113892,1026.421997 1293.522827,1032.036621 
	C1286.316284,1042.119263 1274.357422,1046.513550 1263.832520,1051.657227 
	C1238.530029,1064.022949 1211.414795,1069.731812 1182.995239,1068.081665 
	C1178.754028,1067.835449 1174.734009,1067.898193 1172.000000,1064.000000 
"/>
<path fill="none" opacity="1.000000" stroke="#000000" stroke-linecap="round" stroke-linejoin="round" stroke-width="6.800000"
	d="
M774.000000,490.000000 
	C761.064697,488.066498 750.362061,495.186371 739.069275,499.195221 
	C712.416626,508.656769 685.471863,517.460754 659.950073,529.897583 
	C658.333862,530.685120 656.000000,530.000000 654.000000,530.000000 
"/>
<path fill="none" opacity="1.000000" stroke="#000000" stroke-linecap="round" stroke-linejoin="round" stroke-width="13.600000"
	d="
M1327.000000,899.000000 
	C1316.551880,905.054565 1306.587402,898.786316 1297.099487,896.573303 
	C1277.949097,892.106506 1258.949097,893.392639 1240.063232,895.552856 
	C1234.664673,896.170288 1228.625854,896.788025 1222.876709,898.611084 
	C1207.060547,903.626099 1204.697021,906.401550 1208.984375,922.004272 
	C1209.433594,923.639160 1209.666748,925.333313 1210.000000,927.000000 
"/>
<path fill="none" opacity="1.000000" stroke="#000000" stroke-linecap="round" stroke-linejoin="round" stroke-width="10.200000"
	d="
M879.000000,454.000000 
	C867.269836,448.860168 857.773438,457.950470 847.014526,459.132477 
	C843.697571,459.496857 840.843201,461.338745 837.042603,461.605988 
	C832.350159,461.935913 827.853882,464.670685 827.235413,472.942841 
	C826.519226,482.521698 820.618347,491.994507 815.877930,500.935272 
	C804.159241,523.037537 790.755920,543.861816 770.122253,559.164856 
	C764.347717,563.447510 758.541138,565.721191 752.080200,563.738708 
	C748.315002,562.583496 745.765442,563.440369 743.021545,565.036987 
	C732.417969,571.206848 721.150879,573.609741 709.000000,571.500000 
"/>
<path fill="none" opacity="1.000000" stroke="#000000" stroke-linecap="round" stroke-linejoin="round" stroke-width="8.500000"
	d="
M687.000000,87.000000 
	C678.092773,85.549767 672.211609,90.205765 665.809937,95.781815 
	C656.363953,104.009590 644.775818,109.707886 637.882751,120.927986 
	C635.895081,124.163376 634.524658,127.457909 634.078857,131.009903 
	C632.770691,141.433853 639.488708,147.037476 650.014099,145.075790 
	C656.255920,143.912491 662.427185,142.236420 666.865601,137.863586 
	C672.466309,132.345551 678.964783,131.777420 686.000000,132.000000 
"/>
<path fill="none" opacity="1.000000" stroke="#000000" stroke-linecap="round" stroke-linejoin="round" stroke-width="13.600000"
	d="
M333.500000,1001.000000 
	C335.837280,1007.244080 342.998016,1005.586426 347.270477,1009.720459 
	C359.616791,1021.666992 365.665222,1036.907227 371.842987,1052.063965 
	C377.148895,1065.081909 379.697937,1078.985107 380.894348,1093.009033 
	C381.276917,1097.493286 383.855896,1100.936890 385.000000,1105.000000 
"/>
<path fill="none" opacity="1.000000" stroke="#000000" stroke-linecap="round" stroke-linejoin="round" stroke-width="11.900000"
	d="
M1143.000000,926.000000 
	C1152.425903,915.633850 1166.214966,916.952698 1178.053711,913.168152 
	C1185.093872,910.917542 1192.647827,910.212769 1200.010132,909.064941 
	C1202.613403,908.658997 1205.606323,908.253601 1207.958374,909.113770 
	C1235.832275,919.307373 1265.560669,914.124756 1294.038574,919.806824 
	C1330.381836,927.058228 1366.272095,934.601807 1394.020020,961.979675 
	C1404.007812,971.834167 1409.424683,984.516602 1416.000000,996.500000 
"/>
<path fill="none" opacity="1.000000" stroke="#000000" stroke-linecap="round" stroke-linejoin="round" stroke-width="11.900000"
	d="
M641.000000,362.000000 
	C630.574402,368.003632 628.658386,379.620026 624.318726,389.145203 
	C616.393616,406.540009 611.348083,425.117004 608.130920,444.022278 
	C607.069397,450.260101 609.003235,456.912628 606.000000,463.000000 
"/>
<path fill="none" opacity="1.000000" stroke="#000000" stroke-linecap="round" stroke-linejoin="round" stroke-width="10.200000"
	d="
M1179.000000,978.000000 
	C1181.312866,980.903442 1184.590820,983.245300 1187.977173,982.818604 
	C1197.764404,981.585449 1201.910767,987.339050 1205.001953,994.999207 
	C1211.044800,1009.973877 1212.328369,1024.373535 1203.173950,1039.108154 
	C1194.155396,1053.624268 1179.807617,1059.125122 1164.950317,1060.436768 
	C1148.952271,1061.849243 1139.363403,1048.880127 1131.140625,1036.903442 
	C1124.464600,1027.179443 1123.692749,1015.888306 1128.212769,1005.089050 
	C1130.709961,999.122498 1130.894653,993.797729 1129.000000,988.000000 
"/>
<path fill="none" opacity="1.000000" stroke="#000000" stroke-linecap="round" stroke-linejoin="round" stroke-width="10.200000"
	d="
M1166.000000,979.000000 
	C1166.796875,985.268250 1169.655151,990.307129 1173.873535,995.111023 
	C1179.787476,1001.845520 1179.412720,1010.816345 1174.000122,1017.000061 
	C1168.230103,1023.591919 1159.990234,1025.857788 1154.000122,1022.499817 
	C1145.806152,1017.906616 1142.222168,1010.317078 1145.163086,1001.051758 
	C1147.160400,994.759094 1148.985474,988.504944 1150.000000,982.000000 
"/>
<path fill="none" opacity="1.000000" stroke="#000000" stroke-linecap="round" stroke-linejoin="round" stroke-width="15.300000"
	d="
M262.000000,724.000000 
	C270.947601,721.156494 280.482727,721.597168 289.158356,716.257263 
	C305.997925,705.892456 314.905365,681.257202 303.880188,664.076904 
	C290.891541,643.836914 263.488312,645.732422 249.971161,663.978638 
	C237.814316,680.388550 234.042725,699.163269 234.071304,718.999878 
	C234.080383,725.294250 233.830582,731.263916 229.000000,736.000000 
"/>
<path fill="none" opacity="1.000000" stroke="#000000" stroke-linecap="round" stroke-linejoin="round" stroke-width="8.500000"
	d="
M351.000000,792.000000 
	C370.197662,798.306030 390.099243,801.181091 410.005646,803.959534 
	C420.023376,805.357788 429.935913,801.411011 440.000000,803.000000 
"/>
<path fill="none" opacity="1.000000" stroke="#000000" stroke-linecap="round" stroke-linejoin="round" stroke-width="10.200000"
	d="
M1409.500000,608.000000 
	C1410.308228,630.200012 1425.917847,645.337158 1436.234497,662.861938 
	C1442.712524,673.866150 1452.967896,682.072876 1463.064453,689.916992 
	C1467.593140,693.435303 1472.527954,696.650513 1479.033569,694.085083 
	C1482.784912,692.605713 1486.066284,695.232178 1488.945679,697.084412 
	C1502.122803,705.561096 1516.680420,710.064758 1532.019897,711.827271 
	C1538.232910,712.541138 1544.666626,711.333374 1551.000000,711.000000 
"/>
<path fill="none" opacity="1.000000" stroke="#000000" stroke-linecap="round" stroke-linejoin="round" stroke-width="8.500000"
	d="
M1106.000000,999.000000 
	C1106.683105,1004.816528 1104.393555,1009.101135 1100.078247,1013.084778 
	C1089.632446,1022.727844 1081.251953,1034.261963 1071.938354,1044.946289 
	C1069.803955,1047.395020 1069.296997,1050.069702 1068.778564,1052.758667 
	C1080.168213,1055.871582 1091.645142,1053.397339 1103.081543,1055.571167 
	C1115.724365,1057.974365 1128.323853,1060.731934 1140.968872,1063.161987 
	C1145.893555,1064.108398 1149.657959,1063.631958 1153.000000,1060.000000 
"/>
<path fill="none" opacity="1.000000" stroke="#000000" stroke-linecap="round" stroke-linejoin="round" stroke-width="6.800000"
	d="
M532.000000,181.000000 
	C530.666687,179.000000 528.506165,177.144882 528.126648,174.977814 
	C523.851013,150.567459 509.442841,133.599106 488.958038,121.068611 
	C486.843903,119.775414 484.703003,117.389565 482.019623,118.076622 
	C465.646240,122.268860 450.291504,113.331551 433.974487,114.694733 
	C423.388885,115.579117 413.494324,119.331543 403.000000,120.000000 
"/>
<path fill="none" opacity="1.000000" stroke="#000000" stroke-linecap="round" stroke-linejoin="round" stroke-width="15.300000"
	d="
M1138.000000,68.000000 
	C1126.363770,62.000950 1115.895386,69.217773 1105.019043,71.109459 
	C1093.305786,73.146721 1082.014526,77.371559 1070.007812,78.123871 
	C1069.281372,78.169388 1068.650635,79.361671 1068.002441,78.995758 
	C1055.518188,71.949173 1045.931396,82.255356 1035.000000,84.500000 
"/>
<path fill="none" opacity="1.000000" stroke="#000000" stroke-linecap="round" stroke-linejoin="round" stroke-width="10.200000"
	d="
M545.000000,611.000000 
	C550.935852,620.489685 549.808777,631.766357 552.745667,642.072510 
	C560.814941,670.388916 575.586609,693.909424 597.891418,713.126038 
	C607.498352,721.402893 616.352600,730.495728 629.029968,733.888000 
	C631.543518,734.560608 634.197998,735.749512 637.000000,735.000000 
"/>
<path fill="none" opacity="1.000000" stroke="#000000" stroke-linecap="round" stroke-linejoin="round" stroke-width="13.600000"
	d="
M911.000000,1662.000000 
	C901.431763,1673.160645 887.721375,1668.444946 875.945007,1670.714722 
	C866.022095,1672.627075 856.031006,1674.937378 845.977112,1675.696533 
	C840.455078,1676.113525 839.260559,1684.221924 833.000000,1681.500000 
"/>
<path fill="none" opacity="1.000000" stroke="#000000" stroke-linecap="round" stroke-linejoin="round" stroke-width="13.600000"
	d="
M393.000000,1105.000000 
	C384.900757,1105.304321 379.172699,1109.627319 379.130188,1117.000732 
	C379.012543,1137.388550 370.380737,1156.553955 370.928436,1177.001953 
	C370.987244,1179.198608 369.835205,1181.069702 367.000000,1179.500000 
"/>
<path fill="none" opacity="1.000000" stroke="#000000" stroke-linecap="round" stroke-linejoin="round" stroke-width="10.200000"
	d="
M629.000000,1058.000000 
	C627.333313,1058.000000 625.666626,1058.011230 624.000000,1057.998047 
	C616.538940,1057.939331 607.285767,1060.191650 602.356628,1054.681030 
	C592.662842,1043.843506 577.616089,1035.581543 578.661377,1018.009583 
	C579.253723,1008.053040 575.749573,995.271179 588.141479,990.356689 
	C598.138245,986.392151 609.052368,983.175049 619.997192,983.284058 
	C627.732544,983.361084 635.190247,996.815125 634.000000,1006.000000 
	C633.001648,1013.704163 622.153137,1021.297974 614.000000,1019.999939 
	C604.392395,1018.470276 597.652588,1009.719543 598.476746,999.998047 
	C598.786560,996.343506 598.833313,992.666687 599.000000,989.000000 
"/>
<path fill="none" opacity="1.000000" stroke="#000000" stroke-linecap="round" stroke-linejoin="round" stroke-width="13.600000"
	d="
M370.000000,1181.000000 
	C370.863739,1199.216553 378.943970,1215.334595 385.172333,1231.935303 
	C387.167358,1237.252930 390.309570,1242.690430 397.000000,1244.000000 
"/>
<path fill="none" opacity="1.000000" stroke="#000000" stroke-linecap="round" stroke-linejoin="round" stroke-width="6.800000"
	d="
M515.000000,652.000000 
	C524.541016,661.140259 529.897095,673.365967 538.715759,683.253479 
	C555.043335,701.560120 573.628113,716.005249 595.888977,726.241455 
	C601.301697,728.730530 605.333313,726.656860 610.000000,726.000000 
"/>
<path fill="none" opacity="1.000000" stroke="#000000" stroke-linecap="round" stroke-linejoin="round" stroke-width="10.200000"
	d="
M601.000000,1056.000000 
	C595.720337,1061.322021 588.793945,1060.419800 583.082336,1058.722778 
	C571.661011,1055.329346 559.751526,1052.734863 549.939514,1045.077515 
	C546.297180,1042.235107 541.837036,1040.696289 537.000000,1041.000000 
"/>
<path fill="none" opacity="1.000000" stroke="#000000" stroke-linecap="round" stroke-linejoin="round" stroke-width="8.500000"
	d="
M638.000000,539.000000 
	C609.818420,550.915710 584.316345,566.989258 562.004578,588.004883 
	C558.776978,591.044983 556.047485,594.836548 551.000000,595.000000 
"/>
<path fill="none" opacity="1.000000" stroke="#000000" stroke-linecap="round" stroke-linejoin="round" stroke-width="6.800000"
	d="
M1368.000000,596.000000 
	C1361.565674,598.513733 1361.184814,604.449646 1359.979980,609.995667 
	C1356.658936,625.283936 1351.477905,640.041748 1347.000000,655.000000 
"/>
<path fill="none" opacity="1.000000" stroke="#000000" stroke-linecap="round" stroke-linejoin="round" stroke-width="13.600000"
	d="
M1530.000000,995.000000 
	C1525.509521,989.667358 1519.301147,988.180054 1513.020508,989.134949 
	C1494.734619,991.914917 1476.410278,994.282898 1457.996582,995.962036 
	C1454.981201,996.236938 1452.612549,997.855713 1450.000000,999.000000 
"/>
<path fill="none" opacity="1.000000" stroke="#000000" stroke-linecap="round" stroke-linejoin="round" stroke-width="8.500000"
	d="
M617.000000,488.000000 
	C613.884888,491.406067 612.357361,495.618774 613.099609,499.983063 
	C615.701294,515.280151 616.440430,530.853271 620.000000,546.000000 
"/>
<path fill="none" opacity="1.000000" stroke="#000000" stroke-linecap="round" stroke-linejoin="round" stroke-width="8.500000"
	d="
M249.000000,355.000000 
	C261.354797,366.843933 276.990936,371.880066 293.016907,375.933105 
	C299.935242,377.682800 306.241821,372.657013 312.991882,373.118530 
	C322.991547,373.802277 333.389771,368.486877 343.000000,375.000000 
"/>
<path fill="none" opacity="1.000000" stroke="#000000" stroke-linecap="round" stroke-linejoin="round" stroke-width="11.900000"
	d="
M1525.000000,1004.000000 
	C1518.506958,1003.891479 1512.671753,1005.998291 1506.982056,1008.965515 
	C1493.065430,1016.222961 1478.861450,1023.595703 1463.863403,1027.471191 
	C1450.565430,1030.907227 1438.106812,1036.645508 1424.912354,1039.609985 
	C1416.163452,1041.575562 1407.021118,1042.809082 1398.000000,1044.000000 
"/>
<path fill="none" opacity="1.000000" stroke="#000000" stroke-linecap="round" stroke-linejoin="round" stroke-width="10.200000"
	d="
M826.000000,469.000000 
	C816.197205,466.331604 808.062012,472.766937 799.103821,474.528137 
	C792.441589,475.837952 785.941833,478.042389 779.000000,478.000000 
"/>
<path fill="none" opacity="1.000000" stroke="#000000" stroke-linecap="round" stroke-linejoin="round" stroke-width="10.200000"
	d="
M660.000000,483.000000 
	C655.437012,497.994049 649.875427,512.676147 652.702576,529.051331 
	C653.560852,534.022522 650.103516,539.218445 646.000000,543.000000 
"/>
<path fill="none" opacity="1.000000" stroke="#000000" stroke-linecap="round" stroke-linejoin="round" stroke-width="11.900000"
	d="
M893.000000,1417.000000 
	C882.664124,1427.170166 876.836609,1439.206299 878.075806,1453.993652 
	C878.286621,1456.509766 877.429016,1458.474243 875.944214,1459.943604 
	C869.186951,1466.629883 866.054138,1475.027100 864.000000,1484.000000 
"/>
<path fill="none" opacity="1.000000" stroke="#000000" stroke-linecap="round" stroke-linejoin="round" stroke-width="5.100000"
	d="
M500.000000,601.000000 
	C501.838135,616.436340 505.217529,631.334961 515.000000,644.000000 
"/>
<path fill="none" opacity="1.000000" stroke="#000000" stroke-linecap="round" stroke-linejoin="round" stroke-width="13.600000"
	d="
M1452.000000,1028.000000 
	C1450.223267,1021.405518 1451.109985,1014.671021 1451.045044,1007.999573 
	C1450.972290,1000.527283 1448.789917,995.768127 1439.999512,995.788818 
	C1436.078003,995.798035 1432.027466,995.001038 1428.000000,995.000610 
	C1414.530151,994.999023 1410.447998,1001.587219 1412.645264,1015.057861 
	C1414.034912,1023.577454 1416.898682,1031.223999 1420.000000,1039.000000 
"/>
<path fill="none" opacity="1.000000" stroke="#000000" stroke-linecap="round" stroke-linejoin="round" stroke-width="15.300000"
	d="
M343.000000,438.000000 
	C338.493591,442.320526 334.946014,447.023346 326.967682,446.447784 
	C321.158264,446.028656 316.405731,451.974060 312.121918,456.125824 
	C308.008698,460.112152 303.508270,462.349884 298.000000,463.000000 
"/>
<path fill="none" opacity="1.000000" stroke="#000000" stroke-linecap="round" stroke-linejoin="round" stroke-width="13.600000"
	d="
M956.000000,1658.000000 
	C966.648743,1665.152100 978.343506,1663.413452 990.000000,1662.000000 
"/>
<path fill="none" opacity="1.000000" stroke="#000000" stroke-linecap="round" stroke-linejoin="round" stroke-width="13.600000"
	d="
M989.500000,1659.000000 
	C990.150024,1662.797852 992.766724,1662.943970 995.996216,1663.085815 
	C1009.191040,1663.665894 1012.826904,1669.771118 1006.919922,1681.961182 
	C1002.456909,1691.171387 996.374939,1698.939697 985.000000,1700.000000 
"/>
<path fill="none" opacity="1.000000" stroke="#000000" stroke-linecap="round" stroke-linejoin="round" stroke-width="6.800000"
	d="
M298.000000,378.000000 
	C300.679230,384.308228 306.844208,383.735321 312.010345,384.956238 
	C318.361908,386.457367 324.643921,388.010864 330.000000,392.000000 
"/>
<path fill="none" opacity="1.000000" stroke="#000000" stroke-linecap="round" stroke-linejoin="round" stroke-width="8.500000"
	d="
M1637.000000,647.000000 
	C1643.908081,649.154297 1643.925903,655.983521 1645.709473,661.101257 
	C1646.916260,664.563599 1647.043579,668.315918 1650.000000,671.000000 
"/>
<path fill="none" opacity="1.000000" stroke="#000000" stroke-linecap="round" stroke-linejoin="round" stroke-width="11.900000"
	d="
M893.000000,442.000000 
	C897.946167,443.141052 902.898560,445.477905 907.977661,442.954987 
	C912.613281,440.652313 916.188904,443.200043 920.000000,445.000000 
"/>
<path fill="none" opacity="1.000000" stroke="#000000" stroke-linecap="round" stroke-linejoin="round" stroke-width="5.100000"
	d="
M1267.999878,917.999939 
	C1266.666626,921.666626 1265.333252,925.333313 1263.999878,928.999939 
"/>
</svg>