<svg version="1.1" id="Layer_1" xmlns="http://www.w3.org/2000/svg" xmlns:xlink="http://www.w3.org/1999/xlink" x="0px" y="0px"
	 width="100%" viewBox="0 0 768 1024" enable-background="new 0 0 768 1024" xml:space="preserve">
<path fill="#000000" opacity="1.000000" stroke="none" 
	d="
M1.000000,897.454102 
	C14.067635,889.337463 26.946379,881.328491 40.239983,874.080383 
	C73.729736,855.820862 107.361664,837.820129 141.027298,819.885864 
	C157.783859,810.959473 174.379349,801.721619 191.541687,793.557922 
	C197.492249,790.727478 201.101364,785.367126 204.070023,779.686584 
	C210.578064,767.233154 213.387680,753.739441 214.621048,739.906128 
	C216.894943,714.402649 214.605850,689.045044 211.754211,663.719788 
	C211.569046,662.075134 211.779144,660.254150 209.985657,659.334167 
	C203.015854,655.758850 199.800751,649.020142 195.989258,642.792358 
	C192.326035,636.806824 189.317581,630.498474 186.962921,623.885498 
	C186.330109,622.108337 185.608032,620.696350 183.451050,620.126404 
	C171.694397,617.020081 164.196533,608.758545 158.144211,598.822021 
	C146.662628,579.971863 141.940445,558.859497 137.692108,537.596802 
	C135.104080,524.643921 133.974274,511.536285 134.754929,498.360840 
	C135.613266,483.874298 138.170959,469.854858 149.220993,459.060913 
	C151.417297,456.915436 150.718185,454.544922 150.081879,452.088318 
	C144.410172,430.191772 138.880341,408.258240 134.314865,386.100342 
	C131.492279,372.401306 128.949738,358.626953 131.395386,344.558350 
	C133.683578,331.395477 140.069199,320.203796 148.428497,310.008270 
	C149.164795,309.110260 149.933395,308.231079 150.579742,307.270996 
	C150.810867,306.927643 150.724487,306.370575 150.868668,305.238678 
	C138.870514,309.472961 130.835434,317.741150 123.641289,327.481659 
	C122.452354,315.595398 126.929855,305.259918 131.776932,295.038483 
	C136.669907,284.720276 143.198700,275.545959 151.001724,267.190674 
	C158.959808,258.669312 168.375900,252.334213 180.174637,247.582001 
	C167.942261,237.551025 154.503906,234.880661 140.355957,233.552811 
	C147.256561,229.241959 155.050491,228.616898 162.819809,228.261475 
	C170.804977,227.896194 178.421387,230.758163 186.851212,232.123611 
	C185.565262,211.473206 190.663406,193.773926 206.799103,180.309830 
	C202.110977,192.996201 199.614944,205.879196 201.788498,220.249573 
	C204.263306,216.975830 204.119934,213.782028 204.658875,210.892715 
	C208.649643,189.497498 216.370163,169.936462 232.187698,154.324127 
	C247.450821,139.259048 266.402405,132.313538 287.233978,129.776581 
	C289.622253,129.485718 292.049133,128.282013 294.552490,129.265625 
	C294.675812,129.314087 294.743469,129.504349 295.253937,130.182053 
	C280.804535,135.847733 266.923370,142.278580 257.376160,156.209717 
	C258.613495,155.962479 259.126007,156.003113 259.448242,155.775009 
	C271.087463,147.535034 284.220032,143.174622 298.018250,140.053467 
	C321.217529,134.805740 337.917389,120.260040 351.252563,101.279495 
	C352.189026,99.946640 352.701904,98.264839 354.895172,97.310806 
	C356.839325,107.987358 353.725220,117.669762 350.569763,127.843208 
	C363.016022,121.412086 375.698059,116.012497 389.376465,113.350304 
	C403.007782,110.697273 416.587189,110.594650 430.386841,114.167389 
	C419.357971,117.090706 408.968445,120.900436 401.624542,130.549149 
	C408.642761,128.519806 415.612579,126.301109 422.687500,124.493721 
	C454.441833,116.381592 485.622070,116.818901 515.756348,131.222122 
	C527.753967,136.956619 538.221619,144.867447 547.738403,154.086655 
	C548.452332,154.778244 549.103638,155.552887 549.672729,156.366776 
	C549.910828,156.707306 549.857910,157.251251 550.083069,158.530624 
	C534.523804,152.869629 519.232544,148.077148 503.047272,155.422211 
	C510.115021,156.845383 517.245361,158.014282 524.239258,159.737396 
	C549.391357,165.934341 574.118286,173.263153 595.355713,188.981323 
	C603.710999,195.165176 610.642334,202.673676 616.495911,212.180389 
	C611.943481,212.379166 609.223633,209.503998 605.816284,208.766617 
	C602.476013,208.043732 599.276611,206.586548 594.924561,207.672180 
	C617.418396,225.135147 639.466675,242.314514 643.054443,272.782471 
	C640.773621,274.208801 639.739136,271.836548 637.112488,272.034424 
	C648.906799,287.209808 656.455383,303.713379 658.413147,322.517792 
	C660.410217,341.700317 655.524414,358.781006 643.408752,373.957733 
	C641.661194,366.712799 642.121826,359.318359 639.502319,352.439911 
	C636.984558,345.828888 634.363098,339.318420 629.229431,333.507843 
	C627.016541,342.576965 627.710510,345.597595 637.592346,371.267059 
	C628.438232,371.758148 622.022705,366.349091 614.509644,361.330139 
	C614.388428,367.780060 615.221680,373.485992 614.568604,379.217468 
	C613.873108,385.321594 613.716187,391.494751 612.445374,397.538330 
	C611.922485,400.025391 612.657898,401.646820 615.090576,402.678436 
	C624.710022,406.757843 631.226990,413.749268 634.128418,423.833893 
	C635.051514,427.042114 637.360291,426.641266 639.650818,426.711517 
	C646.555237,426.923279 649.824402,432.275848 646.842712,438.510376 
	C645.843201,440.600372 643.925415,441.367279 641.875854,441.184479 
	C636.891785,440.739960 636.483215,443.523682 636.153564,447.594696 
	C634.657532,466.069946 632.040955,484.333191 623.170593,501.043854 
	C621.362122,504.450775 619.389954,507.830780 616.398926,510.252655 
	C613.013367,512.993958 612.514648,515.907104 613.002075,520.237000 
	C615.549072,542.862244 614.405945,565.420898 610.896057,587.914795 
	C605.879272,620.065857 593.096924,649.524963 579.778503,678.800720 
	C570.194458,699.867798 561.329529,721.279480 550.331360,741.679993 
	C543.070923,755.147217 534.082092,767.289978 521.798584,776.654114 
	C519.526917,778.385986 518.685547,780.557068 518.482361,783.037048 
	C517.735229,792.154907 516.315796,801.202759 516.059204,810.381714 
	C515.942627,814.550476 517.390381,816.697571 521.028992,818.447510 
	C567.114624,840.612366 613.099792,862.986328 659.203125,885.114197 
	C689.960754,899.876648 718.594482,917.471924 740.807800,944.029968 
	C751.539062,956.860291 760.608643,970.794495 768.792969,985.732971 
	C769.000000,991.688049 769.000000,997.376038 768.726440,1003.320984 
	C767.407349,1001.691895 766.257324,999.855591 765.331543,997.912537 
	C744.138977,953.431580 711.695557,920.087952 667.242920,898.554138 
	C621.226807,876.262878 575.252441,853.885132 529.247803,831.570068 
	C525.873352,829.933228 522.401184,828.497803 518.152527,826.601990 
	C519.733521,835.519104 521.317993,843.439270 521.565430,851.579529 
	C522.251892,874.163269 514.360596,892.655518 495.977783,906.124084 
	C477.407471,919.729980 455.784241,922.305908 433.706207,921.935425 
	C413.833191,921.601929 394.337463,918.060913 375.246735,912.500305 
	C307.685394,892.821228 249.328171,857.278320 198.071350,809.541260 
	C189.810455,801.847656 192.802200,801.962952 182.733887,807.292236 
	C143.286163,828.172302 103.950523,849.264282 64.585197,870.299866 
	C42.990520,881.839294 21.719940,893.943481 1.000000,907.000000 
	C1.000000,903.969421 1.000000,900.938782 1.000000,897.454102 
M458.344482,753.732361 
	C469.618622,748.412231 481.308044,745.748169 493.725098,748.665405 
	C508.027344,752.025513 518.692444,746.289307 527.454529,735.548523 
	C530.622192,731.665527 533.416382,727.536255 535.743225,723.085693 
	C541.705811,711.680908 546.159241,699.670288 550.186035,687.481140 
	C550.769897,685.713806 550.855835,683.612244 552.734131,682.422180 
	C553.294861,682.889893 553.719666,683.160828 554.040222,683.523865 
	C559.876648,690.133789 564.712463,689.610229 568.344666,681.786926 
	C572.833008,672.119873 577.129761,662.364075 581.536011,652.658752 
	C598.092285,616.191284 606.832275,578.070190 605.609009,537.892273 
	C605.424988,531.848816 605.328369,525.704346 603.388550,519.338257 
	C590.780273,524.102722 578.133911,525.378967 565.239319,525.359924 
	C552.250916,525.340759 539.625000,523.528625 527.010864,518.381287 
	C528.383301,521.425659 529.592346,523.627869 530.395630,525.969238 
	C534.737610,538.625061 526.067017,549.868896 513.071533,548.469055 
	C509.482086,548.082336 506.567200,549.480896 503.844055,551.536682 
	C501.320099,553.442139 498.942352,555.564331 496.302887,557.289001 
	C489.472565,561.752197 482.042358,562.538818 474.293732,560.229614 
	C472.076050,559.568787 470.263702,558.158264 471.020569,555.470764 
	C471.755066,552.862732 473.889709,552.609009 476.255157,552.906982 
	C494.395538,555.192261 511.828430,536.763428 509.036102,518.528259 
	C507.397888,507.829834 502.816986,498.192871 498.845062,488.331665 
	C493.175995,474.256927 488.429108,459.875946 484.153076,445.332153 
	C483.420105,442.839172 483.026489,439.972931 486.353546,439.193268 
	C489.437958,438.470459 490.097046,441.264374 490.816101,443.479797 
	C492.289093,448.017914 493.700043,452.576141 495.323425,457.717957 
	C494.780731,450.585114 494.138855,444.139740 493.863800,437.678741 
	C493.730042,434.536438 492.591858,432.600891 489.521362,431.921265 
	C477.789703,429.324371 466.068390,429.535828 454.394104,432.236481 
	C450.907318,433.043121 449.254639,435.221436 449.118530,439.046539 
	C448.816620,447.531250 447.945343,455.991974 446.178406,464.313782 
	C441.949097,484.232666 436.365753,503.516571 419.764526,517.862976 
	C424.209167,520.217468 422.722961,523.023132 420.774170,526.132446 
	C415.251251,534.944519 418.721710,543.949951 428.660645,546.907532 
	C429.933075,547.286255 431.255981,547.492432 432.537476,547.844177 
	C434.796600,548.464294 435.920074,550.006042 435.591064,552.307678 
	C435.229889,554.833984 433.332153,555.277649 431.129272,555.250427 
	C422.295685,555.141052 414.314484,549.173096 411.559937,540.700134 
	C409.509277,534.392334 410.833679,528.367188 413.302246,522.310547 
	C408.435181,523.921204 404.082184,525.604431 399.599335,526.801575 
	C383.443817,531.115662 366.932495,530.787109 350.451416,529.957520 
	C344.335602,529.649658 338.239441,528.590881 332.252350,527.027344 
	C312.914459,521.977173 303.253174,507.869598 298.080536,489.989014 
	C293.779449,475.121063 290.559631,459.967133 289.835510,444.420990 
	C289.700714,441.527161 288.703674,440.288422 285.689056,440.182709 
	C280.984467,440.017700 276.392456,440.278748 271.860352,441.632782 
	C259.265289,445.395752 246.701569,449.278839 234.022247,452.735962 
	C229.726440,453.907257 228.220535,455.891937 228.166992,460.352325 
	C227.929062,480.173004 227.441193,499.992828 226.819992,519.805908 
	C226.482620,530.566223 226.279877,530.397217 215.737717,530.437744 
	C212.145645,530.451538 210.877350,529.138916 210.186264,525.780396 
	C207.504837,512.749146 204.561111,499.771545 201.657104,486.786896 
	C201.336731,485.354401 200.920883,483.803375 200.079468,482.650116 
	C194.755493,475.352966 188.915283,468.508911 181.328476,463.427032 
	C170.208359,455.978455 159.580368,458.023071 151.845154,468.997559 
	C145.200455,478.424774 143.692093,489.388947 143.414261,500.383484 
	C142.759171,526.308228 147.906845,551.328552 156.614258,575.665527 
	C160.344696,586.091980 165.065872,596.020752 172.822815,604.102356 
	C180.681885,612.290344 191.252426,614.646851 200.152832,609.880249 
	C210.240814,604.477722 220.322464,596.636780 217.468399,582.973389 
	C215.756363,574.777283 216.315079,566.139099 218.166595,557.655884 
	C219.085800,557.592529 219.740356,557.433533 220.359512,557.522095 
	C227.822372,558.589905 232.061859,563.206055 234.347733,570.102722 
	C241.206650,590.796936 247.180435,611.794495 255.211365,632.087585 
	C261.342712,647.580750 267.494659,663.120483 278.713776,675.877441 
	C292.862030,691.964966 310.436401,703.135010 330.008881,711.468323 
	C339.562042,715.535828 348.378113,715.964539 356.073883,707.710022 
	C356.458252,707.297729 357.215271,707.232910 357.642242,707.067017 
	C358.167694,707.413391 358.535950,707.533386 358.700867,707.786072 
	C359.427795,708.899963 360.109955,710.043945 360.783569,711.191589 
	C369.091827,725.346680 379.836182,737.351257 393.425385,746.523804 
	C413.437988,760.032166 434.501526,766.414612 458.344482,753.732361 
M416.617859,253.099152 
	C395.891937,274.439362 350.350098,288.965118 335.293030,278.271515 
	C342.185455,277.643036 348.325439,276.398590 354.277191,274.476379 
	C360.307556,272.528717 366.112213,269.975525 371.609528,266.791992 
	C380.847992,261.441895 384.150482,258.372101 384.740326,254.687332 
	C383.254578,254.364014 382.256104,255.426849 381.092590,255.981796 
	C358.146301,266.926422 334.647858,269.626465 310.448456,260.505646 
	C306.841614,259.146240 303.622772,259.799011 300.284332,260.999603 
	C282.021576,267.567413 265.541870,290.750031 265.295074,310.081055 
	C265.133453,322.744080 268.222656,334.843292 272.016602,346.719147 
	C273.500519,351.364075 272.895325,354.189209 269.474884,357.628754 
	C261.729095,365.417877 254.555161,373.773041 247.079529,381.833893 
	C234.632324,395.255432 231.373337,411.931946 230.415604,429.324371 
	C230.187302,433.470337 228.142532,437.696686 230.040436,441.838043 
	C232.272659,442.380615 233.908936,441.424011 235.659500,440.970612 
	C253.612778,436.320740 270.002991,426.287567 289.084961,425.482178 
	C291.122803,425.396179 299.185730,410.517700 298.152527,408.728699 
	C296.268066,405.465851 297.714447,403.372589 300.146027,401.457336 
	C307.221802,395.884064 314.555145,390.665161 322.412231,386.256714 
	C327.507019,383.398071 332.852081,381.050934 338.827026,380.652405 
	C360.513123,379.206085 382.055878,381.354340 403.585693,383.412842 
	C409.978943,384.024109 415.892914,386.435394 420.590118,391.084442 
	C422.342163,392.818481 424.422760,392.852631 426.605408,392.851196 
	C453.267548,392.833710 479.929688,392.822083 506.591827,392.811188 
	C508.771118,392.810303 510.959961,392.841156 512.725830,391.248962 
	C516.771179,387.601471 521.879883,386.587036 526.964661,385.729309 
	C535.488708,384.291412 544.078918,383.242523 552.597473,381.775543 
	C563.214783,379.947083 573.727905,378.502777 583.602722,384.596954 
	C583.764832,384.696960 584.164490,384.412079 584.591003,384.256561 
	C584.591003,383.311981 584.749512,382.301758 584.567688,381.357056 
	C580.605957,360.774506 576.203125,340.335907 569.771240,320.309570 
	C561.228516,293.711151 546.429565,272.777618 521.894409,258.224121 
	C496.102234,242.924957 469.270874,234.576935 439.129120,238.268753 
	C431.624237,239.187988 424.699036,240.285263 420.907654,247.969543 
	C420.049164,249.709534 418.393524,251.056244 416.617859,253.099152 
M370.110779,902.325012 
	C372.355988,902.948120 374.597626,903.584595 376.847015,904.192322 
	C404.340454,911.619995 431.987762,916.234619 460.665833,911.780273 
	C497.311676,906.088318 518.660156,877.102539 511.916779,840.732117 
	C509.675568,828.644165 506.321991,816.750916 507.730164,804.253357 
	C508.431854,798.025879 508.921967,791.774536 509.554596,785.034668 
	C504.538483,787.205261 500.071655,789.376831 495.439423,791.104919 
	C458.722809,804.801208 422.144226,802.810669 386.186584,788.732117 
	C346.979187,773.381104 311.381134,751.592651 278.612854,725.223022 
	C260.114929,710.337158 245.731125,692.588806 238.157089,669.443115 
	C232.157669,651.109314 225.739792,632.898926 219.800461,614.534119 
	C219.163177,612.563599 219.088074,610.251526 217.096100,608.845825 
	C214.007492,609.788086 214.106644,612.248169 214.439728,614.541992 
	C217.902954,638.391296 220.709534,662.303955 222.579407,686.342163 
	C224.365265,709.300415 225.405685,732.217529 221.187210,754.997131 
	C218.432251,769.873779 213.973236,784.213562 203.090012,795.421692 
	C199.950562,798.654846 200.657593,800.457336 203.449081,803.050354 
	C210.040039,809.173157 216.698608,815.203552 223.600311,820.983276 
	C267.006897,857.332947 315.343445,884.785583 370.110779,902.325012 
M435.750366,419.810394 
	C430.393616,410.867798 421.368683,407.789124 412.098633,405.414307 
	C400.252258,402.379425 388.022186,402.161469 375.905548,401.668610 
	C357.396515,400.915802 338.914581,401.469574 321.045807,407.226471 
	C308.568726,411.246338 300.803772,419.257904 298.977448,432.817688 
	C298.024689,439.891632 298.444489,446.793335 299.377563,453.696106 
	C301.520233,469.546631 304.454468,485.239532 311.467346,499.819885 
	C315.727234,508.676575 322.552338,514.788513 331.981476,517.646606 
	C351.040497,523.423645 370.380432,522.742920 389.835846,520.024963 
	C409.254028,517.312256 422.491577,506.983948 429.821686,488.824280 
	C434.901306,476.239960 438.497040,463.246094 439.493805,449.749786 
	C440.222076,439.888275 441.663483,429.698669 435.750366,419.810394 
M534.032471,511.501556 
	C536.860718,512.482971 539.620911,513.799866 542.528625,514.389343 
	C557.196106,517.362488 571.942932,517.506165 586.721191,515.160889 
	C604.078857,512.406372 615.254700,502.677094 620.407715,485.814240 
	C625.356750,469.618744 628.085266,453.144623 627.661011,436.180389 
	C627.238831,419.297882 614.294495,406.711700 597.250549,406.466339 
	C597.250549,411.902679 597.396545,417.339722 597.222961,422.766571 
	C596.713989,438.676025 598.629395,454.290894 602.422241,469.724701 
	C604.485962,478.122223 606.288818,486.583618 608.238281,495.009521 
	C609.110413,498.778809 606.729187,500.163879 603.794495,500.943573 
	C600.951355,501.698944 600.500793,499.395142 599.973450,497.472443 
	C592.238220,469.269897 587.446899,440.657410 587.767090,411.302155 
	C587.847046,403.969574 587.289978,403.499756 579.756592,403.404633 
	C569.594055,403.276276 559.412781,403.022491 549.268860,403.476379 
	C539.100403,403.931396 529.160034,405.921600 519.629822,409.828949 
	C509.781921,413.866486 504.269348,421.491272 503.562622,431.544434 
	C501.928162,454.795898 506.632050,476.908844 518.029114,497.423431 
	C521.552429,503.765289 526.625183,508.390320 534.032471,511.501556 
M475.500122,401.416718 
	C460.830292,401.759094 446.111298,400.609406 430.053894,402.358490 
	C438.383942,408.051544 443.861359,414.340637 447.002258,422.482086 
	C447.861725,424.709930 449.418671,424.829285 451.451447,424.061707 
	C455.846466,422.402222 460.451080,421.976532 465.121185,421.598633 
	C475.290649,420.775696 485.289856,421.465790 495.204437,424.311646 
	C498.052094,418.684967 500.197906,413.013458 505.065735,409.119598 
	C506.604126,407.888977 508.035980,406.608734 507.176727,404.072479 
	C506.216919,401.239410 504.104614,401.453186 501.953491,401.447601 
	C493.469086,401.425537 484.984589,401.425842 475.500122,401.416718 
M521.361877,523.365356 
	C519.203979,520.432007 521.938049,518.561584 523.304016,516.160217 
	C520.745422,514.078369 518.361572,512.138672 515.014099,509.414917 
	C518.266235,520.663635 516.959961,530.496460 512.611755,539.899719 
	C518.534363,542.333618 522.605957,540.268066 523.584045,534.563110 
	C524.214233,530.887756 523.944275,527.241455 521.361877,523.365356 
z"/>
<path fill="#000000" opacity="1.000000" stroke="none" 
	d="
M447.245667,561.050781 
	C456.184174,562.005859 463.916809,565.668518 471.946228,568.349670 
	C473.996613,569.034302 474.630066,570.709045 474.723083,572.656677 
	C475.087555,580.291260 469.416931,587.879089 461.837372,589.426025 
	C439.028046,594.081299 415.960358,597.451599 393.369568,603.198059 
	C392.886047,603.321106 392.391754,603.412170 391.897247,603.480103 
	C378.428253,605.331787 369.352478,612.465332 365.013184,625.523926 
	C364.183441,628.020874 362.796265,630.386597 361.360382,632.615845 
	C359.009064,636.266357 355.112946,636.345642 353.653015,632.439270 
	C348.907928,619.742676 347.030670,606.921143 354.808136,594.565857 
	C357.685089,589.995544 362.161987,587.321960 367.183441,585.744812 
	C386.553680,579.660828 405.961639,573.696838 425.359497,567.700806 
	C432.513672,565.489319 439.678772,563.313293 447.245667,561.050781 
z"/>
<path fill="#000000" opacity="1.000000" stroke="none" 
	d="
M436.546814,605.489563 
	C454.091461,604.182312 471.172760,602.911743 488.257690,601.691528 
	C504.841614,600.507080 521.430481,599.390869 538.014221,598.204102 
	C541.214539,597.974976 544.534363,597.502319 546.543823,600.732239 
	C548.509766,603.892090 546.418274,606.426392 544.727783,608.906067 
	C522.791260,641.082764 492.321045,653.738647 453.903198,649.570740 
	C428.643311,646.830261 405.308258,638.950256 383.357300,626.464417 
	C380.589203,624.889893 377.901581,623.219666 375.906403,620.693726 
	C372.527313,616.415649 373.774536,612.330078 379.012970,610.692444 
	C385.589844,608.636414 392.482819,608.629211 399.248657,608.031311 
	C411.504883,606.948303 423.803894,606.349365 436.546814,605.489563 
M477.957214,641.571045 
	C490.855682,639.899170 502.620239,635.517151 513.865356,628.759033 
	C522.384155,623.639404 521.394043,616.245056 522.164307,608.266113 
	C519.853333,608.266113 518.207886,608.164429 516.578247,608.282104 
	C503.465027,609.229065 490.358032,610.263855 477.242920,611.182983 
	C452.342377,612.928223 427.442322,614.688293 402.530426,616.256897 
	C398.069061,616.537842 397.314728,618.481079 398.067841,622.365051 
	C398.623810,625.232178 400.782532,625.947998 402.860352,626.904541 
	C426.408447,637.745422 451.067902,643.013977 477.957214,641.571045 
z"/>
<path fill="#000000" opacity="1.000000" stroke="none" 
	d="
M567.985840,601.666870 
	C567.373169,605.557739 566.975464,609.036499 566.182861,612.422913 
	C565.703857,614.469849 565.002075,616.790833 562.327576,617.086487 
	C559.814758,617.364197 558.290344,615.613953 557.127563,613.792847 
	C555.251160,610.854004 553.450439,607.836731 551.951172,604.693604 
	C549.048096,598.607178 544.124573,595.558105 537.743103,594.091858 
	C523.463379,590.810913 508.952393,588.872559 494.421783,587.584412 
	C486.309448,586.865234 481.818542,576.659058 482.783142,570.531677 
	C483.122650,568.374939 484.881744,567.645813 486.531311,566.894897 
	C491.071289,564.827942 495.641510,562.826904 500.210602,560.824524 
	C502.563965,559.793213 504.965942,559.474670 507.502960,560.228027 
	C523.120972,564.865845 538.757690,569.489502 554.002319,575.228699 
	C564.476807,579.171997 568.567627,587.453674 567.985840,601.666870 
z"/>
<path fill="#000000" opacity="1.000000" stroke="none" 
	d="
M191.500397,526.478760 
	C190.794846,515.416321 185.355865,506.580811 180.181549,497.694092 
	C177.696289,493.425751 174.698837,489.441467 170.918549,486.284668 
	C168.201874,487.394562 167.840561,489.688263 167.137314,491.642670 
	C162.323410,505.021240 158.824188,518.659729 159.304352,533.045349 
	C159.326553,533.710388 159.301697,534.377197 159.294449,535.043152 
	C159.269958,537.292114 158.493668,539.023987 155.977783,539.195618 
	C153.399567,539.371399 152.446579,537.540222 152.151810,535.443115 
	C151.074936,527.782104 151.835175,520.185120 153.115677,512.606873 
	C154.675369,503.376434 157.524475,494.529663 160.854630,485.814423 
	C161.309814,484.623169 162.210449,483.503845 161.704422,482.024384 
	C159.906662,481.753540 158.579834,482.730713 157.163712,483.568573 
	C154.971664,484.865601 152.600876,485.385193 151.009125,482.879303 
	C149.499893,480.503326 150.769592,478.401917 152.591507,476.698303 
	C156.497253,473.046021 163.859314,472.301208 169.510529,475.021118 
	C174.892838,477.611572 179.115219,481.674988 182.606232,486.372284 
	C189.692886,495.907654 195.299469,506.246277 198.994720,517.615112 
	C200.799484,523.167786 200.852661,528.592102 198.019470,533.567688 
	C193.501984,541.500977 194.238449,548.149902 201.053040,554.445801 
	C204.782532,557.891418 205.758209,562.703674 205.397156,567.774780 
	C205.216110,570.317322 204.662750,572.708130 201.783234,572.882812 
	C198.950821,573.054565 197.729309,570.961365 197.663010,568.297974 
	C197.548782,563.707947 195.654236,559.962097 192.434891,556.794067 
	C185.766251,550.231750 185.066116,542.679260 188.646088,534.359070 
	C189.696533,531.917725 190.500412,529.370178 191.500397,526.478760 
z"/>
<path fill="#000000" opacity="1.000000" stroke="none" 
	d="
M489.295929,673.264526 
	C496.222809,671.883423 502.255005,669.060486 508.519165,666.783020 
	C510.082611,676.350159 495.069153,693.387146 483.061371,696.135437 
	C468.473450,699.474243 445.679657,687.224060 441.039246,672.622437 
	C457.240143,675.149231 473.090942,677.349182 489.295929,673.264526 
z"/>
<path fill="#000000" opacity="1.000000" stroke="none" 
	d="
M343.438721,623.858948 
	C339.764404,624.571655 339.374908,622.029297 338.743591,619.802612 
	C335.361481,607.872742 336.939606,596.657227 344.420715,586.716858 
	C351.909088,576.766968 359.853729,567.160217 367.610901,557.413025 
	C368.811981,555.903931 370.352173,554.488464 372.221405,555.948425 
	C374.304657,557.575562 373.197815,559.628235 371.932892,561.218262 
	C365.626862,569.144897 359.248901,577.014404 352.873566,584.885681 
	C347.901978,591.023804 343.857361,597.528503 342.766113,605.634827 
	C342.234375,609.584900 343.452057,613.178040 343.861176,616.932678 
	C344.106720,619.186218 345.296387,621.433411 343.438721,623.858948 
z"/>
<path fill="#000000" opacity="1.000000" stroke="none" 
	d="
M574.552124,601.430542 
	C574.186096,604.514038 573.986877,607.168213 573.543518,609.781067 
	C573.249268,611.515686 572.370605,613.096313 570.221924,612.610046 
	C568.235229,612.160400 567.689453,610.530823 568.080933,608.711304 
	C569.000732,604.437134 568.718628,600.100708 568.929626,595.788574 
	C569.554382,583.017151 562.128906,573.945068 554.763672,564.842102 
	C553.823364,563.679932 552.747620,562.621521 551.868652,561.417175 
	C550.929688,560.130676 550.419312,558.656311 551.881409,557.407043 
	C553.260315,556.228821 554.857544,556.556458 555.911987,557.764771 
	C558.857910,561.140503 561.712769,564.604431 564.449707,568.152222 
	C571.907227,577.819092 576.483032,588.413086 574.552124,601.430542 
z"/>
<path fill="#000000" opacity="1.000000" stroke="none" 
	d="
M471.513672,548.674866 
	C469.858093,551.534851 467.750824,551.547974 465.340088,550.519836 
	C458.165924,547.460083 450.877197,547.189392 443.506805,549.751770 
	C440.813538,550.688049 438.423035,550.454102 437.277527,547.568665 
	C436.110382,544.628906 438.418427,543.252991 440.539368,542.320862 
	C450.143494,538.100037 459.610748,538.963867 468.844086,543.553650 
	C470.694397,544.473450 472.063751,545.941223 471.513672,548.674866 
z"/>
<path fill="#000000" opacity="1.000000" stroke="none" 
	d="
M347.946228,456.931885 
	C344.534424,453.194885 344.399445,448.841431 344.233307,444.256165 
	C338.765625,445.149719 334.918365,448.682281 330.711975,451.502899 
	C329.332184,452.428162 328.073700,453.533234 326.748474,454.541321 
	C324.553070,456.211334 322.194153,457.140808 320.210388,454.487823 
	C318.461060,452.148468 319.668335,450.124115 321.588135,448.395752 
	C331.218353,439.725464 342.340393,434.080902 355.103088,431.663330 
	C373.740631,428.132904 389.916107,433.956787 404.801941,444.668091 
	C407.015106,446.260559 409.317627,448.275726 407.272705,451.258362 
	C405.080444,454.455872 402.426971,452.966888 399.897156,451.297302 
	C388.330872,443.663910 383.395966,441.458069 376.415680,440.926361 
	C377.987640,451.035950 375.351166,459.201569 364.783661,462.592560 
	C358.147400,464.722107 352.763336,461.971649 347.946228,456.931885 
z"/>
<path fill="#000000" opacity="1.000000" stroke="none" 
	d="
M524.531067,447.564667 
	C523.868896,444.444397 522.299438,445.935364 521.255981,446.725098 
	C519.404785,448.126251 517.809631,449.860870 516.002136,451.326202 
	C513.855896,453.066071 511.467255,453.836853 509.398254,451.351166 
	C507.412537,448.965546 509.001221,447.107574 510.690918,445.294037 
	C524.797607,430.153198 548.179443,426.427917 567.258057,436.361298 
	C572.006409,438.833557 576.377625,441.883331 580.258423,445.582977 
	C582.228638,447.461273 583.452942,449.855713 581.380005,452.165741 
	C579.252075,454.537048 576.918274,453.368744 574.817322,451.564423 
	C569.255981,446.788391 563.221497,442.868958 555.898743,440.929688 
	C554.562134,455.768158 550.213074,461.619812 540.627075,461.968018 
	C532.662964,462.257355 525.850342,456.282837 524.531067,447.564667 
z"/>
</svg>